<?xml version="1.0" encoding="UTF-8" standalone="no"?>
<!-- Created with Inkscape (http://www.inkscape.org/) -->

<svg
   xmlns:dc="http://purl.org/dc/elements/1.1/"
   xmlns:cc="http://creativecommons.org/ns#"
   xmlns:rdf="http://www.w3.org/1999/02/22-rdf-syntax-ns#"
   xmlns:svg="http://www.w3.org/2000/svg"
   xmlns="http://www.w3.org/2000/svg"
   xmlns:sodipodi="http://sodipodi.sourceforge.net/DTD/sodipodi-0.dtd"
   xmlns:inkscape="http://www.inkscape.org/namespaces/inkscape"
   width="210mm"
   height="297mm"
   viewBox="0 0 210 297"
   version="1.1"
   id="svg8"
   inkscape:version="0.92.5 (2060ec1f9f, 2020-04-08)"
   sodipodi:docname="rules_page_1.svg"
   inkscape:export-filename="/home/terry/test.png"
   inkscape:export-xdpi="96"
   inkscape:export-ydpi="96">
  <defs
     id="defs2">
    <marker
       inkscape:stockid="Arrow1Lend"
       orient="auto"
       refY="0"
       refX="0"
       id="marker1953"
       style="overflow:visible"
       inkscape:isstock="true">
      <path
         inkscape:connector-curvature="0"
         id="path1951"
         d="M 0,0 5,-5 -12.5,0 5,5 Z"
         style="fill:#000000;fill-opacity:1;fill-rule:evenodd;stroke:#000000;stroke-width:1.00000003pt;stroke-opacity:1"
         transform="matrix(-0.8,0,0,-0.8,-10,0)" />
    </marker>
    <marker
       inkscape:stockid="Arrow1Lend"
       orient="auto"
       refY="0"
       refX="0"
       id="marker1987"
       style="overflow:visible"
       inkscape:isstock="true">
      <path
         inkscape:connector-curvature="0"
         id="path1985"
         d="M 0,0 5,-5 -12.5,0 5,5 Z"
         style="fill:#000000;fill-opacity:1;fill-rule:evenodd;stroke:#000000;stroke-width:1.00000003pt;stroke-opacity:1"
         transform="matrix(-0.8,0,0,-0.8,-10,0)" />
    </marker>
    <marker
       inkscape:isstock="true"
       style="overflow:visible"
       id="marker2045"
       refX="0"
       refY="0"
       orient="auto"
       inkscape:stockid="Arrow1Lend">
      <path
         inkscape:connector-curvature="0"
         transform="matrix(-0.8,0,0,-0.8,-10,0)"
         style="fill:#000000;fill-opacity:1;fill-rule:evenodd;stroke:#000000;stroke-width:1.00000003pt;stroke-opacity:1"
         d="M 0,0 5,-5 -12.5,0 5,5 Z"
         id="path2043" />
    </marker>
    <marker
       inkscape:isstock="true"
       style="overflow:visible"
       id="marker2097"
       refX="0"
       refY="0"
       orient="auto"
       inkscape:stockid="Arrow1Lend">
      <path
         inkscape:connector-curvature="0"
         transform="matrix(-0.8,0,0,-0.8,-10,0)"
         style="fill:#000000;fill-opacity:1;fill-rule:evenodd;stroke:#000000;stroke-width:1.00000003pt;stroke-opacity:1"
         d="M 0,0 5,-5 -12.5,0 5,5 Z"
         id="path2095" />
    </marker>
    <marker
       inkscape:isstock="true"
       style="overflow:visible"
       id="marker2155"
       refX="0"
       refY="0"
       orient="auto"
       inkscape:stockid="Arrow1Lend">
      <path
         inkscape:connector-curvature="0"
         transform="matrix(-0.8,0,0,-0.8,-10,0)"
         style="fill:#000000;fill-opacity:1;fill-rule:evenodd;stroke:#000000;stroke-width:1.00000003pt;stroke-opacity:1"
         d="M 0,0 5,-5 -12.5,0 5,5 Z"
         id="path2153" />
    </marker>
    <marker
       inkscape:stockid="Arrow1Lend"
       orient="auto"
       refY="0"
       refX="0"
       id="marker1953-5"
       style="overflow:visible"
       inkscape:isstock="true">
      <path
         inkscape:connector-curvature="0"
         id="path1951-3"
         d="M 0,0 5,-5 -12.5,0 5,5 Z"
         style="fill:#000000;fill-opacity:1;fill-rule:evenodd;stroke:#000000;stroke-width:1.00000003pt;stroke-opacity:1"
         transform="matrix(-0.8,0,0,-0.8,-10,0)" />
    </marker>
    <marker
       inkscape:stockid="Arrow1Lend"
       orient="auto"
       refY="0"
       refX="0"
       id="marker1953-5-6"
       style="overflow:visible"
       inkscape:isstock="true">
      <path
         inkscape:connector-curvature="0"
         id="path1951-3-2"
         d="M 0,0 5,-5 -12.5,0 5,5 Z"
         style="fill:#000000;fill-opacity:1;fill-rule:evenodd;stroke:#000000;stroke-width:1.00000003pt;stroke-opacity:1"
         transform="matrix(-0.8,0,0,-0.8,-10,0)" />
    </marker>
    <marker
       inkscape:stockid="Arrow1Lend"
       orient="auto"
       refY="0"
       refX="0"
       id="marker1953-5-1"
       style="overflow:visible"
       inkscape:isstock="true">
      <path
         inkscape:connector-curvature="0"
         id="path1951-3-27"
         d="M 0,0 5,-5 -12.5,0 5,5 Z"
         style="fill:#000000;fill-opacity:1;fill-rule:evenodd;stroke:#000000;stroke-width:1.00000003pt;stroke-opacity:1"
         transform="matrix(-0.8,0,0,-0.8,-10,0)" />
    </marker>
  </defs>
  <sodipodi:namedview
     id="base"
     pagecolor="#ffffff"
     bordercolor="#666666"
     borderopacity="1.0"
     inkscape:pageopacity="0.0"
     inkscape:pageshadow="2"
     inkscape:zoom="1"
     inkscape:cx="171.45065"
     inkscape:cy="542.74587"
     inkscape:document-units="mm"
     inkscape:current-layer="g6629"
     showgrid="false"
     units="mm"
     inkscape:window-width="2560"
     inkscape:window-height="1403"
     inkscape:window-x="1920"
     inkscape:window-y="0"
     inkscape:window-maximized="1" />
  <metadata
     id="metadata5">
    <rdf:RDF>
      <cc:Work
         rdf:about="">
        <dc:format>image/svg+xml</dc:format>
        <dc:type
           rdf:resource="http://purl.org/dc/dcmitype/StillImage" />
        <dc:title />
      </cc:Work>
    </rdf:RDF>
  </metadata>
  <g
     inkscape:label="background"
     inkscape:groupmode="layer"
     id="layer1"
     sodipodi:insensitive="true">
    <rect
       style="opacity:1;fill:#ffffff;fill-opacity:1;fill-rule:nonzero;stroke:none;stroke-width:1;stroke-linecap:butt;stroke-linejoin:round;stroke-miterlimit:4;stroke-dasharray:1, 1;stroke-dashoffset:0;stroke-opacity:1;paint-order:stroke markers fill"
       id="rect18"
       height="297"
       x="0"
       y="0"
       width="210" />
  </g>
  <g
     inkscape:groupmode="layer"
     id="layer2"
     inkscape:label="Title">
    <g
       id="g124"
       transform="translate(33.033321,3.7041668)">
      <path
         style="fill:#000000;stroke-width:0.19800913"
         d="m 99.962069,14.482742 c -0.670695,0 -3.789739,2.979158 -3.540775,3.381982 0.05883,0.09531 0.435911,-0.0037 0.837743,-0.21815 0.833086,-0.446482 1.340922,-0.497494 1.552254,-0.155547 0.169618,0.274452 0.253632,6.695737 0.08754,6.691285 -0.353516,-0.0093 -1.691805,-0.580633 -1.746729,-0.745458 -0.06612,-0.198441 -0.441653,0.07267 -1.890006,1.364202 -0.779278,0.694939 -0.800371,0.746774 -0.754924,1.869987 0.02564,0.635432 0.112675,1.273333 0.193401,1.417569 0.08071,0.144177 0.676878,0.616667 1.324828,1.049871 1.370154,0.916098 1.870868,0.90356 2.703456,-0.06846 0.295671,-0.345193 0.541342,-0.694551 0.545795,-0.776226 0.01867,-0.343358 0.401465,-0.108632 0.642191,0.393703 0.142947,0.298163 0.426317,0.574204 0.629717,0.613374 0.55072,0.106005 2.51143,-0.56329 2.64127,-0.901649 0.15988,-0.416643 -0.33315,-0.662939 -1.06085,-0.529895 -0.34147,0.06239 -0.6651,0.03881 -0.71921,-0.05278 -0.16411,-0.27729 -0.33064,-2.036124 -0.44814,-4.734372 -0.37303,-8.566917 -0.37676,-8.599563 -0.997612,-8.599563 z m -36.983594,0.40575 c -0.288216,0.001 -0.565487,0.09685 -0.713623,0.27537 -0.13006,0.156811 -0.426953,0.312836 -0.659606,0.346594 -0.261967,0.03802 -0.466969,0.249825 -0.538292,0.556352 -0.07404,0.318279 -0.324388,0.566594 -0.701125,0.695338 -1.000577,0.341889 -1.349359,0.617853 -1.21684,0.963183 0.165099,0.430246 0.718482,0.399173 1.32396,-0.07449 0.272274,-0.212962 0.677935,-0.389141 0.901649,-0.391553 0.40093,-0.0047 0.406677,0.07431 0.396076,5.490381 -0.0064,3.022092 0.06409,5.70153 0.155547,5.954202 0.135658,0.374982 0.09017,0.479207 -0.247631,0.567544 -0.393577,0.102894 -0.518347,0.287327 -0.325299,0.480392 0.126031,0.126022 2.243902,0.02827 2.474345,-0.114237 0.265716,-0.164217 0.03082,-0.700267 -0.306801,-0.700267 -0.20917,0 -0.275808,-0.330892 -0.275808,-1.369158 V 26.19921 l 0.915852,-0.512037 c 1.181841,-0.660552 1.568195,-0.681503 1.227162,-0.06641 -0.135805,0.245037 -0.220437,0.534588 -0.18781,0.643487 0.03257,0.108951 0.05303,0.834491 0.04528,1.612254 -0.01641,1.678213 0.108939,1.830246 1.586023,1.924849 1.295327,0.08304 1.561681,-5.77e-4 1.561681,-0.493949 0,-0.267096 -0.184078,-0.416674 -0.620039,-0.503851 l -0.619804,-0.123861 0.147762,-1.306745 c 0.276068,-2.440069 0.17094,-2.684855 -1.296433,-3.01454 -0.793509,-0.178287 -0.925528,-0.146669 -1.716587,0.41092 -0.471301,0.332193 -0.907607,0.604102 -0.969632,0.604102 -0.167969,0 0.105688,-6.577047 0.353246,-8.488131 0.176267,-1.361055 0.166251,-1.68729 -0.05671,-1.828468 -0.181887,-0.11516 -0.412629,-0.169833 -0.636803,-0.168233 z M 48.37285,18.339977 c -0.270801,-0.0011 -0.591378,0.0093 -0.968552,0.03272 -1.829797,0.113299 -2.025871,0.146826 -2.530256,0.430503 -0.55032,0.309527 -0.430709,0.556939 0.352177,0.728891 0.324212,0.0712 0.631668,0.19767 0.683288,0.281191 0.147753,0.239048 -0.263159,1.531145 -0.974593,3.064226 -0.359037,0.773714 -0.753287,1.712542 -0.876043,2.086222 -0.490128,1.492065 -1.604732,2.950382 -1.604732,2.099539 0,-0.159612 -0.31201,-0.857703 -0.693177,-1.551169 -0.381161,-0.693444 -0.692966,-1.353015 -0.692966,-1.465737 0,-0.430011 1.517795,-2.916482 2.227568,-3.649201 0.809106,-0.835294 0.871994,-1.006149 0.487508,-1.325257 -0.262935,-0.218207 -2.686858,0.04096 -3.309062,0.353899 -0.411507,0.206937 -0.308073,0.481819 0.229115,0.608627 0.655314,0.154735 0.843651,1.230351 0.405967,2.318359 -0.186023,0.462425 -0.382702,0.841135 -0.437174,0.841413 -0.209206,5e-4 -1.042963,-2.111862 -1.093541,-2.771234 -0.0292,-0.381143 -0.0624,-0.754834 -0.07371,-0.830426 -0.02377,-0.157714 -3.326261,-0.02234 -3.601225,0.147602 -0.09995,0.06177 -0.181568,0.285161 -0.181568,0.49654 0,0.277955 0.137041,0.384458 0.495031,0.384458 0.297349,0 0.495039,0.112989 0.495039,0.283126 0,0.155799 0.185287,0.579102 0.411788,0.94059 1.166092,1.861256 1.964213,3.345343 1.964213,3.652206 0,0.427755 -0.812146,2.252295 -1.002567,2.252295 -0.07698,0 -0.9147,-1.523845 -1.861585,-3.386291 l -1.721554,-3.386082 0.411788,-0.383812 c 0.512581,-0.477561 0.511521,-0.520864 -0.02415,-0.954582 -0.350111,-0.283504 -0.554763,-0.314614 -1.039551,-0.157912 -0.332006,0.107257 -1.138261,0.183546 -1.791704,0.169534 -1.383834,-0.02963 -1.74314,0.143259 -1.650968,0.795153 0.05946,0.420361 0.181874,0.479244 1.106456,0.532474 0.720378,0.04148 1.039557,0.143559 1.039557,0.331952 0,0.362767 1.408952,3.261282 1.964457,4.041415 0.81071,1.138559 2.576148,4.777423 2.462046,5.074709 -0.217011,0.565509 0.51071,0.299249 0.820768,-0.300333 0.168954,-0.326722 0.432538,-0.594001 0.585826,-0.594001 0.175704,0 0.272942,-0.201194 0.263316,-0.54451 -0.0077,-0.299494 0.260738,-1.079308 0.597891,-1.732754 0.33714,-0.653425 0.617158,-1.083666 0.622399,-0.956076 0.0044,0.127579 0.406278,0.82363 0.891097,1.546647 0.484838,0.722997 0.93638,1.487308 1.003416,1.69854 0.06705,0.211195 0.196698,0.384007 0.288072,0.384007 0.09142,0 0.119354,0.17826 0.0624,0.396064 -0.186223,0.712098 0.287941,0.415425 0.605828,-0.379061 0.170594,-0.426361 0.404519,-0.833633 0.519769,-0.904871 0.115317,-0.0712 0.161935,-0.206575 0.103676,-0.300785 -0.05821,-0.09421 0.639512,-1.625113 1.550311,-3.402003 0.910819,-1.776874 1.814974,-3.652563 2.009402,-4.168318 0.39868,-1.057544 0.710302,-1.385059 1.386361,-1.457163 0.661296,-0.07051 1.484715,-0.654857 1.364411,-0.968332 -0.104923,-0.273383 -0.469808,-0.397428 -1.282214,-0.40296 z m 35.769549,0.336262 c -0.364341,0.0078 -1.152173,0.09143 -2.032191,0.22009 -2.432973,0.355619 -4.295782,0.401067 -5.243383,0.128046 -0.511078,-0.147298 -0.699717,-0.123389 -0.871988,0.110346 -0.120904,0.164075 -0.416847,0.298204 -0.657468,0.298204 -0.340416,0 -0.42334,0.09886 -0.374121,0.44555 0.05596,0.394658 0.193164,0.452325 1.201788,0.504936 1.089389,0.05678 1.138817,0.08243 1.141732,0.593985 0.0011,0.294067 0.08769,1.559475 0.191052,2.811883 0.194586,2.359496 0.0047,4.78508 -0.385958,4.915093 -0.114857,0.03839 -0.294984,0.230782 -0.400374,0.427698 -0.177306,0.331295 -0.07197,0.358797 1.411101,0.368531 0.881502,0.0063 1.651787,0.05964 1.711856,0.11967 0.221096,0.22107 0.803952,0.09932 1.249103,-0.26119 0.426167,-0.345078 0.435104,-0.393184 0.129284,-0.698992 -0.214913,-0.214913 -0.494915,-0.286509 -0.81021,-0.207378 -0.613484,0.153963 -0.649318,0.08208 -0.81925,-1.641093 -0.136894,-1.387869 -0.126499,-1.438766 0.332171,-1.613114 0.260424,-0.09904 0.58294,-0.311787 0.71663,-0.472872 0.407979,-0.491595 1.090404,-0.34501 1.526845,0.327866 0.473711,0.730338 0.779945,0.655748 0.8085,-0.196857 0.113462,-1.39742 0.04856,-1.168488 0.185655,-2.130963 0.183626,-0.978789 -0.218715,-1.070392 -0.685212,-0.155977 -0.385632,0.755899 -0.425447,0.777034 -1.641296,0.870457 -0.6853,0.05259 -1.261581,0.08503 -1.280749,0.07197 -0.01909,-0.01248 -0.0636,-0.819969 -0.09902,-1.793404 l -0.0643,-1.769968 1.697218,0.02549 c 1.604634,0.02402 1.732308,0.05852 2.347392,0.633161 0.35777,0.334206 0.720442,0.607751 0.805695,0.607751 0.335974,0 0.440929,-2.200135 0.120289,-2.520774 -0.01563,-0.01563 -0.08941,-0.02077 -0.210844,-0.01799 z m -34.685445,1.108189 c -0.118745,-0.0037 -0.2305,0.110346 -0.448996,0.361639 -0.525846,0.604758 -0.521622,0.763085 0.02714,1.007938 0.998549,0.44557 1.591144,-0.455729 0.764824,-1.163265 -0.153963,-0.13178 -0.250576,-0.204194 -0.342943,-0.206312 z m 2.315758,0.836683 c -0.563746,0 -0.79215,0.104913 -0.970075,0.445544 -0.349823,0.669693 -0.509636,3.990026 -0.358414,7.44815 0.02053,0.469174 -0.08801,0.743401 -0.366825,0.927026 -0.344726,0.227023 -0.472953,0.19884 -0.99007,-0.218153 -0.58164,-0.469033 -0.593182,-0.513197 -0.549691,-2.11524 0.04992,-1.837662 -0.198912,-2.725184 -0.764163,-2.725184 -0.492204,0 -2.393375,2.013521 -2.140634,2.267142 0.118419,0.118743 0.274895,0.100582 0.424908,-0.04945 0.130684,-0.130678 0.408487,-0.237532 0.617206,-0.237532 0.296956,0 0.353542,0.0967 0.260123,0.445345 -0.06565,0.245052 -0.120747,0.913371 -0.122145,1.48511 -0.0038,0.961825 -0.03781,1.039556 -0.473314,1.039556 -0.541212,0 -1.015519,0.46993 -0.809981,0.802469 0.09282,0.150246 0.445946,0.179378 1.056526,0.08739 0.504448,-0.07604 2.105655,-0.131303 3.558215,-0.122769 2.295408,0.01405 2.745784,-0.03818 3.441163,-0.392834 0.731589,-0.37325 0.773097,-0.435139 0.484918,-0.723321 -0.275007,-0.274971 -0.385466,-0.280101 -0.867003,-0.04112 -0.303532,0.150712 -0.624967,0.277684 -0.714264,0.282476 -0.0894,0.0047 -0.178337,-0.837763 -0.197933,-1.872353 l -0.03568,-1.880969 1.13851,-0.05633 c 1.247348,-0.06164 1.319432,0.02339 0.826571,0.976524 -0.26505,0.512572 -0.276155,0.757504 -0.07309,1.623876 0.131451,0.561093 0.331699,1.136576 0.444897,1.279002 0.422361,0.531373 1.62318,0.862449 3.067038,0.845499 1.591667,-0.01867 2.207728,-0.288669 2.594359,-1.137232 0.326797,-0.717201 -0.01085,-1.023911 -0.542577,-0.492454 -0.695512,0.695499 -1.458277,0.99415 -2.010481,0.787187 -0.994687,-0.372784 -2.178062,-1.921372 -2.178062,-2.850167 0,-0.451921 1.250954,-1.469089 1.808031,-1.470049 0.311616,-4.99e-4 0.749519,0.228439 1.08923,0.569689 0.312423,0.313827 0.768349,0.631645 1.013317,0.706314 0.362026,0.110346 0.483472,0.03587 0.648638,-0.398665 0.246128,-0.647326 0.0939,-1.217858 -0.361651,-1.355801 -1.385894,-0.419715 -2.293463,-0.505675 -3.025495,-0.286351 -0.429444,0.12867 -0.876992,0.349887 -0.994594,0.491594 -0.174126,0.209806 -0.302613,0.19949 -0.692098,-0.05571 -0.348363,-0.228255 -0.800479,-0.290134 -1.664768,-0.227631 l -1.1867,0.0858 0.0038,-0.90358 c 0.0013,-0.497012 0.125556,-1.255796 0.275382,-1.686278 0.361097,-1.037531 0.228783,-1.296424 -0.662189,-1.296424 z m 35.049055,2.261111 c -0.131313,5e-4 -0.299724,0.0355 -0.492034,0.108647 -0.493027,0.187454 -0.633282,0.412741 -0.401235,0.644772 0.1644,0.16441 0.83567,-0.05008 1.080628,-0.345288 0.211091,-0.254319 0.101667,-0.410979 -0.187359,-0.408131 z m 23.732253,0.295173 c -0.34759,0.02785 -0.80573,0.319014 -1.25639,0.845504 -0.38966,0.455226 -0.70847,0.987826 -0.70847,1.183692 0,0.308184 0.0667,0.325674 0.49589,0.130222 0.27274,-0.124165 0.54032,-0.181276 0.59465,-0.126966 0.16622,0.166204 -0.14387,1.959976 -0.38165,2.207771 -0.27729,0.288995 -0.26773,0.506798 0.0475,1.07441 0.30135,0.542554 0.4531,0.552844 1.04816,0.07111 0.39564,-0.320378 0.47362,-0.59246 0.53871,-1.881191 0.0666,-1.318701 0.12276,-1.506622 0.4505,-1.506622 0.26456,0 0.37434,0.141241 0.37434,0.481699 0,0.6353 0.62022,0.828093 1.27792,0.397159 0.36786,-0.241035 0.50408,-0.503095 0.50408,-0.969853 0,-1.031956 -1.02148,-1.652174 -2.00359,-1.21662 -0.22629,0.100424 -0.35165,0.02224 -0.42685,-0.26527 -0.0809,-0.309333 -0.28448,-0.446651 -0.55484,-0.424908 z m -3.8157,0.08847 c -0.0674,-0.001 -0.13347,0.0063 -0.19706,0.02606 -0.235,0.07326 -0.65005,0.184476 -0.92231,0.246988 -0.76904,0.17652 -1.71489,0.990443 -2.17333,1.869988 -0.36289,0.696213 -0.38691,0.893642 -0.18503,1.520819 0.12758,0.39641 0.32673,0.83983 0.44253,0.985345 0.23618,0.296673 1.6065,0.957198 2.21294,1.066648 0.21781,0.03918 0.75238,0.0047 1.18801,-0.07681 0.43562,-0.08148 0.85165,-0.152107 0.92445,-0.156832 0.0728,-0.0047 0.32897,-0.327075 0.56947,-0.716211 0.3389,-0.548359 0.38389,-0.759775 0.20007,-0.940374 -0.18243,-0.179257 -0.3156,-0.137045 -0.57764,0.183295 -0.44926,0.549183 -0.94649,0.797178 -1.90851,0.952211 -0.7644,0.123232 -0.80744,0.100414 -1.23686,-0.658548 -0.33955,-0.600158 -0.38657,-0.823924 -0.19812,-0.944675 0.43219,-0.276944 1.61736,-0.650294 2.07395,-0.653367 0.58758,-0.0047 1.12578,-0.838761 0.96189,-1.491797 -0.16792,-0.669006 -0.70271,-1.19739 -1.17445,-1.212735 z m -17.961151,0.783322 c -0.310255,-0.0078 -0.559315,0.232351 -1.03655,0.922743 -0.435145,0.62949 -0.431867,1.028433 0.0078,0.954576 0.304078,-0.05103 0.340537,0.097 0.297108,1.207155 -0.0355,0.905809 -0.142331,1.333129 -0.376712,1.504461 -0.191639,0.140152 -0.264546,0.340858 -0.175769,0.48449 0.08537,0.137979 0.33675,0.195782 0.574864,0.131922 0.232744,-0.06239 0.715539,-0.114842 1.072894,-0.116399 0.769425,-0.0037 1.060712,-0.48719 0.527749,-0.876908 -0.253737,-0.185545 -0.36134,-0.53561 -0.371326,-1.208214 -0.01243,-0.848824 0.04736,-0.983436 0.579794,-1.298799 0.922712,-0.546529 1.224965,-0.477094 1.373668,0.315599 0.07189,0.383032 0.06486,0.80291 -0.01563,0.933075 -0.2275,0.368111 -0.0838,1.592393 0.227411,1.936239 0.329565,0.364163 1.841867,0.474136 2.218742,0.161369 0.210078,-0.174343 0.193244,-0.265343 -0.08924,-0.479774 -0.191781,-0.145583 -0.559583,-0.267409 -0.817316,-0.27085 -0.407617,-0.0063 -0.453017,-0.07733 -0.347879,-0.550992 0.06641,-0.299478 0.178219,-0.965956 0.248268,-1.481224 0.116561,-0.856911 0.07668,-0.988775 -0.467282,-1.545127 l -0.594646,-0.608208 -1.025344,0.604548 c -0.563904,0.332481 -1.09503,0.604537 -1.180272,0.604537 -0.08519,0 -0.117027,-0.258678 -0.07059,-0.574623 0.06628,-0.451271 -0.0047,-0.602749 -0.331946,-0.706535 -0.08167,-0.02596 -0.15646,-0.04111 -0.228056,-0.04295 z m -2.978411,0.03309 c -0.310534,-0.02297 -0.620931,0.247538 -0.961667,0.825062 -0.503698,0.853648 -0.512619,1.120727 -0.03246,0.968337 0.316323,-0.100429 0.393011,0.01788 0.507511,0.781377 0.169031,1.127209 0.03682,1.552599 -0.586465,1.886134 -0.718717,0.384653 -0.6089,0.754075 0.250843,0.844 1.680514,0.175786 1.800515,0.158464 1.93992,-0.280752 0.08785,-0.277026 0.03603,-0.480192 -0.148531,-0.583469 -0.219753,-0.122923 -0.272909,-0.578641 -0.23794,-2.035222 0.03786,-1.579844 -0.01086,-1.92703 -0.30487,-2.193564 -0.144177,-0.130527 -0.28524,-0.201446 -0.426386,-0.211903 z m 20.132572,0.620034 c 0.11268,10e-4 0.18921,0.06451 0.28614,0.18136 0.2884,0.34749 0.30445,0.326739 -0.57937,0.756209 -1.3514,0.656671 -1.73852,0.104766 -0.43889,-0.625625 0.38306,-0.215291 0.58733,-0.314126 0.73212,-0.311944 z m -7.796644,0.04515 c 0.43709,-0.0078 0.836699,0.03991 0.946815,0.154897 0.09158,0.09561 0.196505,0.724297 0.23321,1.397099 l 0.06674,1.223297 -0.839688,0.608413 c -1.082638,0.78426 -1.727163,0.793522 -2.121711,0.03057 -0.24745,-0.47851 -0.260781,-0.776153 -0.07729,-1.732732 0.121831,-0.635191 0.327095,-1.269033 0.455886,-1.408737 0.15024,-0.162979 0.774034,-0.263183 1.336018,-0.272806 z"
         id="path840"
         inkscape:connector-curvature="0"
         sodipodi:nodetypes="cccccccccsccccccccscsscsccccssccssccccssscccsssscccssccscssssccscccccssssssccccccssssccscssscsccccsssscccscscccsscscccccccccccscccccsccccccccccsccscssccsscsccsccccsccsccssccccscscccccscccscccscccscssscsccccccsccscccccccsccccccsccccccscccccccscccsscccccscscccccccsscscscscccscscccccccc" />
      <path
         style="fill:#000000;stroke-width:0.26773775"
         d="m 103.66138,36.176587 c -0.12813,0.0047 -0.32074,0.04426 -0.59867,0.10419 -1.14113,0.245944 -2.25623,0.81074 -2.92938,1.483883 -0.613916,0.613914 -0.688837,1.1784 -0.12799,0.963177 0.62109,-0.238335 0.76339,0.273593 0.91488,3.29066 0.28174,5.611322 0.10299,8.393768 -0.54777,8.524558 -0.458991,0.0923 -1.09855,1.066742 -0.90528,1.379441 0.175864,0.284549 3.67567,0.07348 3.99059,-0.240558 0.12707,-0.126776 0.1361,-0.383665 0.0204,-0.571047 -0.48655,-0.787244 -0.24004,-11.751095 0.32057,-14.259959 0.11534,-0.516175 0.1447,-0.682919 -0.13732,-0.674303 z m -54.847584,0.918664 c -0.78895,0.006 -1.572479,0.166938 -2.296955,0.487253 -0.764032,0.337814 -1.556549,0.558427 -1.761111,0.490177 -0.204564,-0.06821 -0.299211,-0.006 -0.210331,0.137319 0.08884,0.143794 -0.195588,0.603703 -0.632117,1.021924 -0.436528,0.41823 -0.793588,0.934549 -0.793588,1.147322 0,0.212763 -0.234901,0.766754 -0.52187,1.231088 -1.027842,1.663079 -0.651451,6.354452 0.66354,8.270894 0.612514,0.892646 1.976968,1.721599 2.628584,1.59703 0.344154,-0.06579 0.798525,0.05331 1.009713,0.26443 0.211187,0.211191 0.862669,0.510266 1.447824,0.664717 1.50382,0.396929 2.864645,0.393908 3.480907,-0.0075 0.290462,-0.189504 1.251091,-0.62929 2.134628,-0.977149 0.883536,-0.347846 1.826578,-0.82248 2.095947,-1.054789 0.472726,-0.407712 0.470436,-0.43817 -0.06685,-0.873284 -0.573172,-0.46413 -0.695523,-1.343528 -0.395621,-2.842978 0.144395,-0.721936 0.283672,-0.81893 1.351806,-0.939324 1.408676,-0.158772 1.535922,-0.252517 1.309344,-0.966366 -0.201023,-0.633455 -1.099917,-0.99351 -1.563294,-0.626302 -0.38934,0.30851 -3.540953,0.67596 -5.46486,0.637068 -0.767177,-0.01552 -1.471914,0.09637 -1.566216,0.249008 -0.32074,0.518986 0.729777,0.974195 1.934778,0.838372 1.101545,-0.124218 1.160117,-0.09592 1.160117,0.557657 0,0.378596 0.120303,0.762785 0.267636,0.853801 0.147257,0.09094 0.267922,0.401025 0.267922,0.688834 0,0.287826 0.141535,0.750147 0.314747,1.027469 0.267292,0.428006 0.196433,0.607001 -0.468644,1.184839 -0.883792,0.767873 -2.060577,1.165236 -2.201239,0.743254 -0.06384,-0.191779 -0.232749,-0.192519 -0.542243,-0.0016 -0.988499,0.607448 -4.292125,-1.641707 -5.041883,-3.432626 -0.485704,-1.160181 -0.443514,-2.787875 0.128284,-4.950838 0.534897,-2.023384 1.157377,-2.727386 2.834532,-3.206012 0.601823,-0.171772 1.222994,-0.408357 1.380323,-0.525667 0.157329,-0.117295 0.699286,0.0075 1.204624,0.278103 0.681972,0.36466 1.188169,1.015752 1.964155,2.526181 0.574991,1.119176 1.144065,1.973748 1.26455,1.899288 0.400378,-0.247443 0.775173,-2.17781 0.652776,-3.36223 -0.0664,-0.642401 -0.127681,-1.321391 -0.136115,-1.508605 -0.009,-0.187234 -0.325001,-0.481415 -0.703681,-0.653955 -0.554349,-0.252577 -0.734084,-0.240411 -0.921873,0.06339 -0.195046,0.315596 -0.40012,0.285934 -1.252611,-0.181521 -0.918092,-0.503405 -1.941191,-0.754343 -2.955543,-0.747315 z m 33.603401,7.020593 c -0.263697,0.0091 -0.565137,0.081 -0.899773,0.220792 -0.493504,0.206208 -1.164785,0.374682 -1.491729,0.374682 -1.512039,0 -3.17111,2.031682 -3.17111,3.883236 0,1.005556 0.592895,2.541196 1.410571,3.242375 0.683402,0.61905 1.263365,0.744866 2.065698,0.906743 1.127125,0 2.824952,-0.860666 3.918141,-1.98627 0.917342,-0.944566 0.948011,-1.030557 0.517224,-1.450146 -0.428101,-0.416952 -0.487,-0.404503 -0.904996,0.19083 -0.881701,1.255824 -1.887048,2.174291 -2.367645,2.163148 -0.510465,-0.01206 -1.693914,-1.612753 -1.693914,-2.291434 0,-0.215296 0.210948,-0.465494 0.468646,-0.556195 1.813641,-0.638384 2.793952,-1.25073 3.050385,-1.905114 0.672499,-1.716156 0.24112,-2.833842 -0.901498,-2.792647 z m -8.00502,0.254839 c -0.338554,0.0075 -0.796979,0.291517 -1.728244,1.01465 -0.850082,0.660112 -1.699755,1.200258 -1.888236,1.200258 -0.188468,0 -0.421969,-0.422868 -0.518966,-0.939892 -0.09697,-0.51702 -0.2823,-1.005437 -0.411624,-1.08536 -0.242566,-0.149962 -2.48628,1.277513 -2.796137,1.778867 -0.284845,0.460889 0.05887,0.580198 0.693505,0.240574 0.882799,-0.472458 1.07363,0.04306 1.014954,2.743192 -0.04201,1.936126 0.03312,2.428439 0.440142,2.878173 0.27003,0.298382 0.563759,0.542527 0.652775,0.542527 0.48566,0 0.940829,-1.402154 0.982084,-3.025658 0.04908,-1.933606 0.16272,-2.123505 1.809986,-3.023618 0.999971,-0.546414 1.175126,-0.31141 0.625718,0.8407 -0.53077,1.113044 -0.564198,1.953462 -0.134156,3.389003 0.253303,0.845452 0.418416,1.026833 0.834302,0.918075 0.285083,-0.07453 0.725498,-0.006 0.978879,0.152133 0.582442,0.363744 2.021177,-0.07167 2.021177,-0.611763 0,-0.261173 -0.264503,-0.358982 -0.849138,-0.314173 l -0.848845,0.06519 -0.163771,-1.671505 c -0.174872,-1.786859 -0.07936,-3.40612 0.230385,-3.907375 0.234061,-0.378716 0.01762,-0.75666 -0.632993,-1.104848 -0.09922,-0.05314 -0.199008,-0.0816 -0.311855,-0.07904 z m 22.474999,0.18181 c -0.200245,-0.0026 -0.426323,0.0016 -0.680423,0.01206 -1.44133,0.06385 -1.726025,-0.02801 -2.459898,1.031291 -0.42314,0.610799 -0.707342,1.083765 -0.865952,1.256645 -0.694058,0.548569 -1.498006,2.230636 -1.525497,2.720511 -0.102689,1.818116 -0.07634,1.918875 0.661218,2.522112 0.944596,0.772555 1.562318,0.799355 2.884853,0.125125 0.637372,-0.324945 1.303457,-0.466611 1.761697,-0.374965 0.518242,0.103592 0.886521,-0.006 1.240703,-0.371767 0.276985,-0.285492 0.723395,-0.598208 0.991989,-0.694965 0.688311,-0.247974 0.46315,-1.137018 -0.262427,-1.036185 -0.785094,0.109167 -0.992818,-0.912537 -0.58615,-2.881386 0.37742,-1.827273 0.241518,-2.283887 -1.160113,-2.309165 z m -4.585763,1.497556 c -0.166744,-0.441769 -0.44245,-0.803177 -0.612634,-0.803177 -0.17019,0 -0.676311,-0.07318 -1.124635,-0.1629 -0.719383,-0.143943 -0.888366,-0.05014 -1.43907,0.799683 -0.343195,0.529596 -0.71427,0.964683 -0.824705,0.966366 -0.11052,0.0016 -0.201016,-0.478577 -0.201016,-1.067608 0,-1.314117 -0.38342,-1.377522 -2.030186,-0.33482 -1.285788,0.814112 -1.499973,1.215871 -0.580072,1.087967 0.580072,-1.087967 0.609189,0.03598 0.684487,1.356754 0.04515,0.792354 -0.0047,1.635844 -0.110823,1.874283 -0.106146,0.238424 -0.207677,0.493624 -0.226027,0.56725 -0.01841,0.07363 -0.124673,0.477986 -0.236216,0.898598 -0.155054,0.584671 -0.08974,0.850801 0.277815,1.129565 0.587125,0.445277 0.773499,0.45877 1.435597,0.104499 0.403825,-0.21613 0.51779,-0.56595 0.51779,-1.588906 0,-1.593008 0.34619,-2.575605 1.141511,-3.239173 0.769115,-0.64174 1.000407,-0.641148 1.000407,0.0016 0,0.731106 0.486361,0.866629 1.028909,0.455561 0.618403,-0.761515 1.298868,-2.542502 1.298868,-2.046213 z M 64.377856,45.034795 c -0.622601,0.01505 -1.254599,0.162344 -1.726511,0.450039 -0.508139,0.309773 -1.124808,0.563798 -1.370129,0.564345 -0.687437,0.0016 -2.031414,1.881414 -2.108157,2.948855 -0.13732,1.909424 0.0045,2.453908 0.842158,3.236564 0.701697,0.655492 1.046831,0.774344 2.2091,0.760987 0.912852,-0.01055 1.783487,-0.231528 2.582027,-0.655392 0.662653,-0.351743 1.457145,-0.756303 1.765479,-0.898882 0.689077,-0.318646 1.370551,-1.826741 0.995169,-2.202127 -0.356623,-0.356621 -1.099694,-0.03446 -1.287814,0.55825 -0.08462,0.266749 -0.893476,0.86354 -1.797473,1.326206 l -1.643593,0.841293 -0.612635,-0.748493 c -0.945195,-1.154791 -0.806221,-1.519016 0.773501,-2.024953 0.773095,-0.247613 1.64668,-0.483928 1.941177,-0.525081 0.326223,-0.04557 0.796493,-0.568471 1.203165,-1.337849 0.618761,-1.170596 0.635414,-1.295007 0.228367,-1.702052 -0.408523,-0.40853 -1.193364,-0.610353 -1.993831,-0.59171 z m 17.33826,0.290616 c 0.0798,-0.0047 0.146952,0.0075 0.198101,0.03839 0.453352,0.280194 -0.359012,1.752525 -1.273857,2.308881 -1.070258,0.650831 -1.643873,0.661612 -1.643873,0.03057 0,-0.701909 1.948296,-2.329707 2.719629,-2.37783 z m 14.474348,0.457002 c 0.431668,0 0.476638,0.138677 0.324946,1.0039 -0.09682,0.552214 -0.351597,1.283649 -0.566096,1.62526 -0.214484,0.341623 -0.40006,0.978512 -0.4125,1.415235 -0.01206,0.436728 -0.09455,0.835613 -0.182383,0.886672 -0.08793,0.05108 -0.567024,0.180275 -1.064718,0.287124 l -0.904975,0.194308 0.194324,-1.30062 c 0.300879,-2.015596 1.632183,-4.111879 2.611402,-4.111879 z m -32.582043,0.311273 c 0.02048,5.77e-4 0.04035,0.0026 0.05932,0.006 0.25815,0.04924 0.506558,0.349997 0.552134,0.668496 0.06324,0.44147 -0.197064,0.742873 -1.094664,1.268903 -1.422738,0.833778 -1.531886,0.843532 -1.531886,0.134159 0,-0.699092 1.377327,-2.096417 2.015077,-2.077894 z"
         id="path840-2"
         inkscape:connector-curvature="0"
         sodipodi:nodetypes="ccccccsscsccccssccccccccccsccssccccscscccccscccsscsccccccscccccccsccccccsccsccscccsccccccccccsccsccscccccccccsccsscccscssccscccsccccscssccscccsccccsccssssscccsccccscc" />
    </g>
  </g>
  <g
     inkscape:groupmode="layer"
     id="layer3"
     inkscape:label="border"
     sodipodi:insensitive="true">
    <path
       style="fill:#000000;stroke-width:0.49311849"
       d="M 6.3333312,291.42497 C 6.1047655,290.98297 5.7805079,290.07725 5.6127631,289.4123 5.4450088,288.74734 5.210531,224.89422 5.091697,147.51647 4.9188329,34.956001 4.976865,6.6463608 5.3819625,5.9128298 5.831988,5.0979206 16.881157,4.9964505 104.76914,5.0000856 c 93.58026,0.0039 98.89143,0.06038 99.07825,1.0550782 0.10856,0.578056 0.32289,2.259246 0.47627,3.735966 0.21905,2.1088852 0.43044,62.0325822 0.56521,160.2304702 0.003,2.16113 -0.0675,9.98064 -0.15662,17.37672 0.64078,7.2889 -0.0589,14.53696 -0.143,21.31191 0.0198,3.78986 0.23958,30.9736 0.28106,34.75932 0.0255,2.32736 -0.0507,13.43894 -0.16937,24.69239 -0.16479,15.62784 -0.33923,20.64641 -0.7385,21.24644 -0.42065,0.63216 -10.37638,0.85687 -50.97527,1.15055 -27.74889,0.20073 -58.869668,0.49036 -69.157286,0.64363 -67.690995,1.00845 -77.0762023,1.03538 -77.4966005,0.22241 z M 22.687488,287.9371 c 7.525478,-0.0298 9.431119,-0.10404 9.611232,-0.37471 0.167936,-0.25236 -4.578841,-0.51002 -7.599966,-0.41254 -0.774331,0.0249 -4.485118,0.10406 -8.24618,0.17563 -3.761073,0.0715 -6.204752,0.29839 -5.430421,0.50399 0.77435,0.2056 2.765492,0.31767 4.424783,0.24906 1.659301,-0.0686 4.91754,-0.13224 7.240552,-0.14143 z m 13.178476,-0.45143 c -0.384591,-0.15129 -1.108645,-0.15679 -1.609005,-0.0129 -0.500379,0.14459 -0.18571,0.26839 0.699241,0.27511 0.88496,0.007 1.294356,-0.11163 0.909764,-0.2629 z M 9.1413539,286.54088 c -0.4180773,-0.9895 -0.4237793,-1.05241 -0.4824322,-5.32514 -0.027698,-2.01452 -0.1860446,-3.53748 -0.3519746,-3.38439 -0.1659206,0.15311 -0.2421283,2.3454 -0.1693399,4.87176 0.102645,3.56285 0.2659103,4.59339 0.7276741,4.59339 0.3783833,0 0.4789939,-0.27537 0.2760726,-0.75562 z m 54.7762891,0.14925 c -0.24676,-0.60003 -15.020546,-0.29456 -15.428833,0.31901 -0.105167,0.15806 3.379403,0.28736 7.743499,0.28736 5.20368,0 7.848877,-0.20869 7.685334,-0.60637 z m 4.224422,-0.0129 c 0,-0.34687 -0.707225,-0.54624 -1.608413,-0.45338 -2.090845,0.21543 -2.091313,1.07249 -6.78e-4,1.07249 0.884951,0 1.609005,-0.2786 1.609005,-0.61911 z m 8.648441,-0.2776 c 0.22124,-0.11921 -1.226868,-0.23416 -3.21802,-0.25534 -1.991152,-0.0212 -3.398916,0.17291 -3.128374,0.43121 0.460446,0.43963 5.461768,0.30104 6.346394,-0.17587 z m 116.049964,0.29769 c 2.49357,-0.63183 -89.10042,-1.12358 -100.563223,-0.53989 l -2.614642,0.13315 2.413517,0.38555 c 3.454484,0.55182 98.591208,0.57184 100.764348,0.0212 z M 78.893958,286.32665 c -0.133676,-0.20085 -0.480617,-0.22235 -0.770988,-0.0476 -0.320895,0.19297 -0.225576,0.33623 0.243036,0.36524 0.424037,0.0262 0.661619,-0.11664 0.527952,-0.31752 z m 10.069387,-0.0501 c -0.384592,-0.15132 -1.108646,-0.15681 -1.609005,-0.0129 -0.500369,0.1446 -0.185711,0.2684 0.69925,0.2751 0.88496,0.007 1.294346,-0.11163 0.909755,-0.2629 z m 108.000215,0.0151 c -0.27655,-0.16771 -0.72909,-0.16771 -1.00563,0 -0.27655,0.16769 -0.0502,0.30491 0.50282,0.30491 0.5531,0 0.77936,-0.13722 0.50281,-0.30491 z m 1.80176,0.0351 c -0.13366,-0.20087 -0.48061,-0.22234 -0.77098,-0.0476 -0.32089,0.19298 -0.22558,0.33623 0.24302,0.36523 0.42404,0.0262 0.66162,-0.11664 0.52796,-0.3175 z m 0.60811,-2.79862 c 1.10284,-0.57777 1.10984,-0.61648 1.10984,-6.12577 V 10.827966 l -3.01689,0.228954 c -2.2958,0.174221 -3.0169,-1.1648992 -3.0169,-0.562538 0,0.716563 -135.975763,0.68019 -136.351195,0.443803 -0.26549,0.398972 -46.668504,0.4705 -47.487572,0.4705 -1.3087107,0 0.266579,261.005795 -0.121498,262.678795 -0.242883,1.04706 -0.441602,3.75257 -0.441602,6.01225 v 4.10852 l 183.895407,-0.0494 c 2.37631,-0.0272 4.81999,-0.31101 5.43041,-0.6308 z m 2.80726,-6.53484 c 0.0988,-1.01206 0.19852,-11.85806 0.0142,-12.02929 -0.88885,-2.11671 -0.33501,9.5036 -0.50481,11.71798 -0.24909,3.24829 0.3006,4.79738 0.49065,0.31131 z M 8.6936111,270.52097 c 0.063896,-1.74573 -0.01958,-3.17387 -0.1855288,-3.17367 -0.1659301,2e-4 -0.2770373,1.97259 -0.2469133,4.38307 0.057688,4.61532 0.2377156,4.11185 0.4324421,-1.2094 z m 0.3495296,-7.25377 c 0.017669,-0.58184 0.063037,-3.04007 0.1005628,-5.46273 0.029608,-5.23929 -0.3386796,-8.00812 -0.3339232,-11.74942 0,-1.88999 -0.1523676,-3.20635 -0.3386032,-2.92525 -0.1862356,0.28112 -0.3013924,2.51277 -0.2559104,4.95923 0.045463,2.44648 0.089684,7.10042 0.098108,10.34209 0.0086,3.2417 0.1688718,5.89397 0.3564636,5.89397 0.1875919,0 0.355585,-0.47604 0.3733213,-1.05789 z M 9.2615155,171.48191 C 9.1629488,133.60716 9.0864737,102.07467 9.0915548,101.40971 9.0963304,100.74474 9.1558333,94.488053 9.223063,87.505981 9.3360804,75.77087 9.1056331,65.701982 8.7367244,66.256395 8.6256173,66.423367 8.4874329,236.56705 8.5947961,241.02127 c 0.00764,0.33216 0.1892441,0.31068 0.4298824,-0.051 0.2837803,-0.42648 0.3590711,-22.51559 0.236837,-69.48841 z M 201.86539,228.05074 c -0.76672,-1.3092 -0.015,21.57546 0.56623,16.3652 0.11019,-0.40927 -0.0139,-7.59733 -0.11588,-8.18551 -0.0373,-2.94713 -0.08,-7.48336 -0.45035,-8.17969 z M 201.64643,190.028 c -0.10199,-0.58817 -0.2721,-0.14817 -0.2803,0.84927 -0.009,0.99744 -0.19464,9.2895 0.27539,9.04548 0.59996,-0.33418 0.18681,-8.78085 0.0849,-9.36902 z m 0.53427,-15.59358 c -0.19938,-2.56175 -0.73107,-0.49854 -0.73107,4.65491 0,5.15345 0.605,8.17041 0.68039,5.59368 0.0282,-2.53186 0.19534,-5.92775 0.16376,-6.87099 z m -0.22212,-10.55879 c -0.0892,-1.08056 -0.54176,-0.24667 -0.54176,1.91445 0,2.16112 0.52319,3.81768 0.61244,2.73712 0.0972,-0.91097 0.17488,-2.46387 -0.0707,-4.65157 z m -0.052,-15.49696 c -0.0766,-2.42505 -0.45954,-0.24024 -0.46017,4.41448 -8.5e-4,4.65473 0.54175,7.05944 0.61896,4.82974 0.0677,-1.986 0.16445,-4.18283 0.0808,-7.14131 z m 0.0981,-24.62524 c 0.0142,-10.72132 -0.11838,-19.83009 -0.24572,-20.02141 -0.23481,-0.35288 -0.53244,2.66068 -0.5665,17.32435 -0.0322,13.85616 0.0858,22.58247 0.30088,22.2592 0.11316,-0.17005 0.49718,-8.84083 0.51134,-19.56214 z m 0.0875,-23.955683 c 0,-2.98315 -0.35877,-3.96856 -0.68109,-0.82962 -0.12894,1.255743 0.0953,3.348423 0.30413,3.348423 0.20732,0 0.37696,-1.13346 0.37696,-2.518803 z m -0.11838,-7.304489 c -0.0959,-0.748074 -0.57414,0.104306 -0.57414,1.600475 0,1.496174 0.47828,1.867904 0.57414,1.119811 0.0959,-0.748074 0.0959,-1.972201 0,-2.720286 z m 0.16006,-18.767828 c -0.32375,-0.486528 -0.44063,-0.184347 -0.43171,1.116149 0.0108,1.563339 0.0654,1.645631 0.44394,0.667155 0.30939,-0.799919 0.30593,-1.305164 -0.0122,-1.783304 z m 0.30706,-9.492936 c -0.006,-1.994882 -0.17792,-3.627052 -0.38127,-3.627052 -0.41167,0 -0.50742,4.802476 -0.12557,6.297911 0.41592,1.628826 0.51879,1.086696 0.50684,-2.670859 z M 9.0863304,59.012756 c -0.045463,-5.871913 -0.062464,-6.059671 -0.4563101,-5.04976 -0.3289471,0.843529 -0.5563381,5.466229 -0.4456798,9.060426 0.095128,3.08898 0.9282935,-0.615842 0.9019899,-4.010666 z M 202.32898,57.737027 c -0.43943,-0.660371 -0.74074,0.389827 -0.42525,1.482138 0.29914,1.035751 0.32082,1.034813 0.4875,-0.02116 0.0959,-0.60786 0.068,-1.265264 -0.0622,-1.460898 z m 0.13941,-10.733114 c 0.0149,-4.488477 -0.13299,-8.160879 -0.3286,-8.160879 -0.42277,0 -0.5963,11.208268 -0.22019,14.22115 0.14422,1.155334 0.32061,2.100618 0.39197,2.100618 0.0713,0 0.14193,-3.672402 0.15682,-8.160889 z M 9.1158049,51.604658 C 9.2251165,50.976505 9.1584979,50.09241 8.9677544,49.639994 8.7319776,49.080749 8.6189984,49.44636 8.614815,50.782109 c -0.00669,2.199434 0.2017752,2.542056 0.5009899,0.822549 z M 9.1633689,29.244672 C 9.1150408,10.60673 9.121249,10.459901 9.9678716,10.053429 10.437123,9.8281358 13.355241,9.7188298 16.452583,9.8105118 c 3.097343,0.09172 14.320207,0.156656 24.939685,0.144388 10.619469,-0.01284 23.380947,0.01451 28.358821,0.05973 17.532057,0.158816 98.918821,-0.1130444 112.429691,-0.3755254 7.52212,-0.146136 14.89844,-0.132044 16.3918,0.03135 l 2.71521,0.297037 0.0318,3.1032564 c 0.0375,3.663173 0.23853,3.141104 0.47832,-1.24214 l 0.17156,-3.1363874 -96.22609,0.0298 C 52.819038,8.7384658 9.2973032,8.9561498 9.028413,9.2058888 8.491559,9.7045178 8.0233865,40.288848 8.4708141,45.632353 9.0029308,51.987199 9.2096438,47.096024 9.1633882,29.244769 Z M 202.49455,34.647143 c 0,-1.642781 -0.18101,-3.155 -0.40225,-3.36048 -0.24975,-0.231958 -0.40226,0.900484 -0.40226,2.986877 0,1.848271 0.18102,3.36048 0.40226,3.36048 0.22124,0 0.40225,-1.344097 0.40225,-2.986877 z M 202.0923,19.232141 c 0,-0.146621 -0.18102,-0.434713 -0.40226,-0.640194 -0.22124,-0.20548 -0.40225,-0.08552 -0.40225,0.266582 0,0.352101 0.18101,0.640193 0.40225,0.640193 0.22124,0 0.40226,-0.119989 0.40226,-0.266581 z"
       id="path1687"
       inkscape:connector-curvature="0"
       sodipodi:nodetypes="ccscscccccccsssccccccccccccccccccscccscccsscccccccccccccccccccccccccscccsccscsssccccccccccccccccccscccccccccccccccccccccccccccccccscscscscscccccccccccccccccccccccccccscccssssssssccccsccccssssssssssssss" />
  </g>
  <g
     inkscape:groupmode="layer"
     id="layer4"
     inkscape:label="text">
    <path
       style="fill:#000000;stroke-width:0.26458335"
       d="m -400.42481,206.66264 c -0.36937,-0.30226 -0.44552,-1.60909 -0.59066,-10.13592 -0.18635,-10.94796 -0.35376,-16.69138 -0.55522,-19.04934 -0.38799,-4.54096 -0.58922,-10.19104 -0.81511,-22.88646 -0.066,-3.71078 -0.18643,-8.1742 -0.26758,-9.9187 -0.32508,-6.98887 -0.47524,-29.54372 -0.32942,-49.480261 0.0394,-5.38427 -0.0279,-17.230994 -0.14961,-26.326044 -0.36492,-27.27942 -0.36991,-28.32266 -0.13614,-28.46714 0.12378,-0.0765 0.23328,0.55254 0.24333,1.39788 0.0197,1.66067 0.14399,5.1637 0.36892,10.40051 0.26297,6.12253 0.50319,32.228534 0.53561,58.208335 0.0355,28.46609 0.36335,51.35501 0.80058,55.8972 0.0668,0.69341 0.18688,3.07466 0.26696,5.29167 0.0801,2.21701 0.19506,5.40014 0.25552,7.07363 0.0605,1.67349 0.18291,7.56709 0.27213,13.09688 0.21368,13.24557 0.24511,13.89441 0.68784,14.20396 0.38737,0.27084 18.49031,0.0539 19.94521,-0.23901 0.43656,-0.0879 4.90141,-0.177 9.92187,-0.19801 5.02047,-0.021 15.5575,-0.13754 23.41563,-0.25894 7.85812,-0.12141 17.08546,-0.25636 20.5052,-0.29989 3.41974,-0.0435 7.76553,-0.15599 9.65731,-0.24989 7.00226,-0.34759 19.80214,-0.33105 24.60625,0.0318 8.78304,0.66336 9.525,0.74898 9.525,1.09905 0,0.1819 -0.0595,0.35228 -0.1323,0.37862 -0.22882,0.0828 -10.3559,-0.60737 -12.45233,-0.84868 -1.10071,-0.12669 -3.30337,-0.18434 -4.89479,-0.12811 -1.59143,0.0562 -8.31085,0.17257 -14.93204,0.25852 -14.81245,0.19228 -27.45916,0.38502 -34.79272,0.53026 -3.05593,0.0605 -10.6164,0.19264 -16.80104,0.29358 -6.18463,0.10095 -12.31635,0.20748 -13.62604,0.23674 -19.04791,0.42557 -20.11402,0.43012 -20.53236,0.0878 z"
       id="path4836"
       inkscape:connector-curvature="0" />
    <path
       style="fill:#000000;stroke-width:0.26458335"
       d="m -284.11253,204.33495 c -0.092,-0.28974 -0.0904,-0.6511 0.004,-0.80303 0.14437,-0.23358 0.56793,-70.06466 0.47259,-77.91288 -0.0177,-1.4552 -0.0456,-3.5388 -0.062,-4.6302 -0.0164,-1.09141 0.0338,-7.1636 0.11154,-13.49376 0.0778,-6.33015 0.2014,-25.201561 0.27476,-41.936455 0.26568,-60.5989398 0.30912,-65.06073184 0.63444,-65.16917184 0.23158,-0.07719 0.23121,-0.192501 -0.002,-0.47289 -0.45093,-0.543339 -0.48072,-2.47772596 -0.0449,-2.91357696 0.31481,-0.31471 0.3084,-0.368324 -0.044,-0.368324 -0.35221,0 -0.38829,-0.299283 -0.24725,-2.050521 0.15869,-1.970431 0.45729,-2.844917 0.88181,-2.582546 0.11,0.06798 0.15404,1.763313 0.0979,3.767399 -0.18717,6.677285 -0.6303,114.6421258 -0.57205,139.3750458 0.0185,7.85813 0.0228,15.83532 0.01,17.72709 -0.0132,1.89177 -0.0907,14.20135 -0.17209,27.35462 -0.10648,17.20117 -0.23202,24.01623 -0.44721,24.27552 -0.41702,0.50246 -0.69949,0.44998 -0.89509,-0.16632 z"
       id="path4834"
       inkscape:connector-curvature="0" />
    <path
       style="fill:#000000;stroke-width:0.26458335"
       d="m -395.53753,201.63067 c -0.16389,-0.26518 -0.81484,-0.22381 5.72321,-0.36378 3.12869,-0.067 8.72463,-0.25108 12.43541,-0.40912 3.71078,-0.15803 10.67594,-0.32948 15.47813,-0.38101 4.80218,-0.0515 10.39812,-0.16695 12.43541,-0.25651 2.03729,-0.0896 12.15761,-0.20662 22.48958,-0.26012 15.82234,-0.0819 23.19567,-0.21719 24.15834,-0.44314 0.62701,-0.14717 13.80938,0.42291 13.80938,0.59719 0,0.21709 -7.66011,0.29155 -37.43855,0.36394 -9.02229,0.0219 -19.85698,0.12488 -24.07708,0.22877 -4.2201,0.10389 -10.70901,0.2567 -14.41979,0.33958 -3.71078,0.0829 -7.10406,0.19072 -7.54063,0.23964 -2.8753,0.32221 -22.88241,0.62124 -23.05341,0.34456 z"
       id="path4832"
       inkscape:connector-curvature="0" />
    <path
       style="fill:#000000;stroke-width:0.26458335"
       d="m -396.44647,193.70556 c -0.008,-3.39571 -0.0193,-6.35261 -0.0243,-6.57089 -0.005,-0.21828 0.008,-5.21891 0.0292,-11.1125 0.0211,-5.89359 0.0379,-15.71625 0.0374,-21.82813 -0.002,-18.48194 0.20703,-58.152201 0.4069,-77.390625 0.10356,-9.96818 0.18539,-18.42162 0.18185,-18.78542 -0.0509,-5.22371 -0.37743,-34.33392 -0.38733,-34.52812 -0.0321,-0.631 0.31177,-10.843973 0.45439,-13.4937548 0.0862,-1.600729 0.16023,-4.515347 0.16462,-6.476928 0.009,-3.91698604 0.18743,-4.767864 1.00124,-4.767864 0.50993,0 0.52992,0.121361 0.40321,2.447396 -0.43956,8.068691 -0.73174,25.1350308 -0.80289,46.8974008 -0.0447,13.67895 -0.14377,29.93099 -0.2201,36.115624 -0.17262,13.98632 -0.38777,47.093791 -0.55795,85.855741 -0.0871,19.83564 -0.21951,29.66158 -0.40057,29.72193 -0.1788,0.0596 -0.2756,-2.00234 -0.28561,-6.08386 z"
       id="path4830"
       inkscape:connector-curvature="0" />
    <path
       style="fill:#000000;stroke-width:0.26458335"
       d="m -289.91511,188.12686 c 0.0359,-6.00274 0.19016,-14.7836 0.34283,-19.51302 0.15268,-4.72943 0.27331,-16.39756 0.26807,-25.92917 -0.005,-9.53162 0.0681,-30.30802 0.16296,-46.169791 0.30371,-50.783344 0.3335,-79.515785 0.0826,-79.670839 -0.13777,-0.08515 -0.14144,-0.278789 -0.009,-0.45533 0.12849,-0.170783 0.14569,-2.363058 0.0387,-4.937381 -0.36588,-8.8071898 -0.3745,-11.99509284 -0.0327,-12.10901384 0.17476,-0.05825 0.33294,-0.0067 0.35151,0.114569 0.15832,1.03376 0.22031,2.26860504 0.36301,7.23194504 0.15196,5.2851948 0.46029,28.3439858 0.40685,30.4270858 -0.0131,0.50932 -0.0598,6.87916 -0.10394,14.15521 -0.0441,7.27604 -0.12205,18.28932 -0.1732,24.47395 -0.0512,6.184644 -0.0703,19.737464 -0.0425,30.117385 0.0278,10.37992 -0.01,18.97015 -0.0835,19.0894 -0.0737,0.11924 -0.15735,8.83111 -0.18588,19.35971 -0.0285,10.52859 -0.15005,20.6907 -0.27003,22.58247 -0.11997,1.89178 -0.26724,9.80943 -0.32726,17.5948 -0.06,7.78536 -0.11752,14.2445 -0.12777,14.35364 -0.0103,0.10914 -0.17788,0.19844 -0.3725,0.19844 -0.29075,0 -0.34222,-1.94629 -0.28861,-10.91406 z"
       id="path4828"
       inkscape:connector-curvature="0" />
    <path
       style="fill:#000000;stroke-width:0.26458335"
       d="m -403.54162,16.412266 c -0.0287,-20.9649418 0.0141,-23.7463538 0.36512,-23.7463538 0.21868,0 0.40072,0.148828 0.40455,0.330729 0.004,0.181901 0.0638,2.29526 0.13334,4.696354 0.14602,5.043723 0.13435,9.030079 -0.0272,9.291448 -0.0617,0.09985 -0.179,7.1881618 -0.26065,15.7518118 -0.0816,8.56366 -0.24616,15.987 -0.36558,16.49632 -0.11942,0.50933 -0.23174,-9.75981 -0.2496,-22.820309 z"
       id="path3642"
       inkscape:connector-curvature="0" />
    <path
       style="fill:#000000;stroke-width:0.26458335"
       d="m -301.54833,-2.0526278 c -0.42146,-0.126118 -3.87427,-0.23638 -7.67291,-0.245027 -3.79865,-0.0086 -6.93697,-0.103584 -6.97407,-0.210972 -0.0371,-0.107389 -2.38848,-0.195253 -5.22531,-0.195253 -2.83683,0 -5.15796,-0.09632 -5.15808,-0.214052 -1.1e-4,-0.117729 -0.11157,-0.145226 -0.24768,-0.06111 -0.13611,0.08412 -15.40588,0.202882 -33.93281,0.263913 -18.52694,0.06103 -33.95323,0.191713 -34.28065,0.290402 -0.48841,0.147213 -0.59531,0.07728 -0.59531,-0.389438 0,-0.567495 0.0152,-0.568756 6.28385,-0.520589 5.26616,0.04046 22.56525,0.05114 31.41927,0.01939 1.30969,-0.0047 3.63141,-0.0095 5.15937,-0.01074 1.52797,-0.0012 3.13532,-0.02577 3.57188,-0.05457 0.43656,-0.0288 1.83555,-0.05338 3.10885,-0.05461 1.52067,-0.0015 2.3165,-0.103345 2.31916,-0.296877 0.003,-0.204016 0.0638,-0.20826 0.19844,-0.0138 0.25472,0.368005 -0.72101,0.337288 15.06093,0.474138 7.59452,0.06586 13.91536,0.185952 14.04631,0.266882 0.13095,0.08093 5.62222,0.14936 12.20283,0.152065 6.5806,0.0027 12.07672,0.07413 12.21358,0.158717 0.89591,0.553703 -0.13574,0.67665 -5.04311,0.60101 -2.91059,-0.04486 -5.29184,0.0077 -5.29167,0.11687 2.6e-4,0.236045 -0.15243,0.226013 -1.16287,-0.07635 z"
       id="path3572"
       inkscape:connector-curvature="0" />
    <path
       style="fill:#000000;stroke-width:0.26458335"
       d="m -287.19916,-7.2008728 c -0.23214,-0.232143 -16.10893,-0.44774 -41.49642,-0.563496 -30.3832,-0.138534 -27.97822,-0.114584 -27.58116,-0.274664 0.18281,-0.0737 0.25956,-0.251826 0.17056,-0.395834 -0.1061,-0.171672 2.37605,-0.21075 7.20824,-0.113485 4.05354,0.08159 13.26366,0.120289 20.46694,0.08599 30.84169,-0.146839 44.18543,0.167034 44.18543,1.039335 0,0.250779 -0.4101,0.353518 -1.41111,0.353518 -0.77611,0 -1.47023,-0.05912 -1.54248,-0.131368 z"
       id="path3570"
       inkscape:connector-curvature="0" />
    <path
       style="fill:#000000;stroke-width:0.26458335"
       d="m -384.55106,-7.4506878 c -0.0673,-0.06733 -3.92825,-0.140332 -8.57982,-0.162225 -7.84225,-0.03691 -9.62033,-0.182159 -9.26515,-0.756856 0.0732,-0.11846 10.46475,-0.214692 23.0923,-0.213851 12.62756,8.42e-4 22.74938,0.05322 22.49294,0.116389 -0.25645,0.06317 -0.39371,0.232248 -0.30504,0.375726 0.10428,0.168723 -1.83382,0.248722 -5.48686,0.226484 -6.58433,-0.04008 -20.80413,0.234749 -21.40994,0.413799 -0.22881,0.06762 -0.4711,0.06787 -0.53843,5.29e-4 z"
       id="path3566"
       inkscape:connector-curvature="0" />
    <path
       inkscape:connector-curvature="0"
       style="fill:#000000;stroke-width:0.40125179"
       d="m 27.63094,68.62085 c 0,-0.528106 -3.231328,-0.489434 61.792762,-0.739497 24.606788,-0.09463 54.428058,-0.28241 66.269468,-0.417276 14.92523,-0.169989 21.61017,-0.115256 21.7916,0.178255 0.15452,0.250048 -0.11771,0.425421 -0.66477,0.428211 -15.67352,0.08038 -43.52579,0.456326 -44.86502,0.60563 -0.99231,0.110708 -9.38788,0.198774 -18.65678,0.195877 -21.843659,-0.0061 -47.916904,0.04564 -68.91499,0.138763 -12.456817,0.0552 -16.75227,-0.04475 -16.75227,-0.389902 z"
       id="path4148" />
    <path
       inkscape:connector-curvature="0"
       style="fill:#000000;stroke-width:0.40191561"
       d="m 91.870873,215.66132 c -0.005,-0.34151 -4.62044,-0.47563 -17.58996,-0.51108 -9.67108,-0.0264 -20.74888,-0.11029 -24.61731,-0.18627 -3.86844,-0.076 -10.42468,-0.16251 -14.56944,-0.19227 -6.50183,-0.0466 -7.53592,-0.13929 -7.53592,-0.67447 0,-0.53875 0.62138,-0.58625 4.72251,-0.36099 13.05735,0.71724 96.601017,0.3768 133.868217,-0.5455 10.67377,-0.26415 12.85979,-0.13657 12.33047,0.71997 -0.11879,0.19217 -5.68409,0.37102 -12.36737,0.39744 -6.68326,0.0264 -13.23657,0.12563 -14.56288,0.22058 -3.66879,0.26251 -21.84947,0.54929 -35.56954,0.56106 -21.711017,0.0187 -23.483107,0.0606 -23.803277,0.56397 -0.22166,0.34845 -0.30093,0.35041 -0.3055,0.008 z"
       id="path4446" />
    <g
       id="g6629"
       transform="translate(3.3928755,1.058322)">
      <text
         xml:space="preserve"
         style="font-style:normal;font-variant:normal;font-weight:500;font-stretch:normal;font-size:4.23333311px;line-height:1.25;font-family:BoereTudor;-inkscape-font-specification:'BoereTudor, Medium';font-variant-ligatures:normal;font-variant-caps:normal;font-variant-numeric:normal;font-feature-settings:normal;text-align:start;letter-spacing:0px;word-spacing:0px;writing-mode:lr-tb;text-anchor:start;fill:#000000;fill-opacity:1;stroke:none;stroke-width:0.26458332"
         x="39.836578"
         y="126.03323"
         id="text4811"><tspan
           y="129.51761"
           x="39.836578"
           id="tspan1959"
           sodipodi:role="line"
           style="stroke-width:0.26458332" /></text>
      <flowRoot
         xml:space="preserve"
         id="flowRoot937"
         style="font-style:normal;font-variant:normal;font-weight:normal;font-stretch:normal;font-size:16px;line-height:1.25;font-family:BoereTudor;-inkscape-font-specification:BoereTudor;letter-spacing:0px;word-spacing:0px;fill:#000000;fill-opacity:1;stroke:none"
         transform="matrix(0.26407833,0,0,0.26458333,37.574301,88.268792)"><flowRegion
           id="flowRegion939"><rect
             id="rect941"
             width="273.56677"
             height="426.61795"
             x="264.56693"
             y="0" /></flowRegion><flowPara
           style="font-style:normal;font-variant:normal;font-weight:normal;font-stretch:normal;font-family:'Abyssinica SIL';-inkscape-font-specification:'Abyssinica SIL'"
           id="flowPara945">The witch finder general instructs everyone to close their eyes including themselves.</flowPara><flowPara
           style="font-style:normal;font-variant:normal;font-weight:normal;font-stretch:normal;font-family:'Abyssinica SIL';-inkscape-font-specification:'Abyssinica SIL'"
           id="flowPara1202" /><flowPara
           style="font-style:normal;font-variant:normal;font-weight:normal;font-stretch:normal;font-family:'Abyssinica SIL';-inkscape-font-specification:'Abyssinica SIL'"
           id="flowPara949">The witches will then open their </flowPara><flowPara
           style="font-style:normal;font-variant:normal;font-weight:normal;font-stretch:normal;font-family:'Abyssinica SIL';-inkscape-font-specification:'Abyssinica SIL'"
           id="flowPara1218">eyes and identify each other.</flowPara><flowPara
           style="font-style:normal;font-variant:normal;font-weight:normal;font-stretch:normal;font-family:'Abyssinica SIL';-inkscape-font-specification:'Abyssinica SIL'"
           id="flowPara1210" /><flowPara
           style="font-style:normal;font-variant:normal;font-weight:normal;font-stretch:normal;font-family:'Abyssinica SIL';-inkscape-font-specification:'Abyssinica SIL'"
           id="flowPara951">After 30 seconds the witches will close their eyes</flowPara><flowPara
           style="font-style:normal;font-variant:normal;font-weight:normal;font-stretch:normal;font-family:'Abyssinica SIL';-inkscape-font-specification:'Abyssinica SIL'"
           id="flowPara1212" /><flowPara
           style="font-style:normal;font-variant:normal;font-weight:normal;font-stretch:normal;font-family:'Abyssinica SIL';-inkscape-font-specification:'Abyssinica SIL'"
           id="flowPara953">The cultists will then open their </flowPara><flowPara
           style="font-style:normal;font-variant:normal;font-weight:normal;font-stretch:normal;font-family:'Abyssinica SIL';-inkscape-font-specification:'Abyssinica SIL'"
           id="flowPara1220">eyes and identify each other.</flowPara><flowPara
           style="font-style:normal;font-variant:normal;font-weight:normal;font-stretch:normal;font-family:'Abyssinica SIL';-inkscape-font-specification:'Abyssinica SIL'"
           id="flowPara1214" /><flowPara
           style="font-style:normal;font-variant:normal;font-weight:normal;font-stretch:normal;font-family:'Abyssinica SIL';-inkscape-font-specification:'Abyssinica SIL'"
           id="flowPara955">After 30 seconds the cultists will then close their eyes</flowPara><flowPara
           style="font-style:normal;font-variant:normal;font-weight:normal;font-stretch:normal;font-family:'Abyssinica SIL';-inkscape-font-specification:'Abyssinica SIL'"
           id="flowPara1216" /><flowPara
           style="font-style:normal;font-variant:normal;font-weight:normal;font-stretch:normal;font-family:'Abyssinica SIL';-inkscape-font-specification:'Abyssinica SIL'"
           id="flowPara957">Everyone opens their eyes</flowPara></flowRoot>      <text
         xml:space="preserve"
         style="font-style:normal;font-variant:normal;font-weight:normal;font-stretch:normal;font-size:8.80587482px;line-height:1.25;font-family:BoereTudor;-inkscape-font-specification:BoereTudor;letter-spacing:0px;word-spacing:0px;fill:#000000;fill-opacity:1;stroke:none;stroke-width:0.55036718"
         x="90.300407"
         y="81.526894"
         id="text1194"><tspan
           sodipodi:role="line"
           id="tspan1192"
           x="90.300407"
           y="81.526894"
           style="stroke-width:0.55036718">Setup</tspan></text>
      <flowRoot
         transform="matrix(0.26458333,0,0,0.26458333,96.596443,-6.3477187)"
         style="font-style:normal;font-variant:normal;font-weight:normal;font-stretch:normal;font-size:16px;line-height:1.25;font-family:'Abyssinica SIL';-inkscape-font-specification:'Abyssinica SIL';letter-spacing:0px;word-spacing:0px;fill:#000000;fill-opacity:1;stroke:none"
         id="flowRoot5304"
         xml:space="preserve"><flowRegion
           id="flowRegion5306"><rect
             y="357.43011"
             x="-252.43712"
             height="439.62238"
             width="276.77167"
             id="rect5308" /></flowRegion><flowPara
           id="flowPara5312">Remove the witchfinder general card from the deck.</flowPara><flowPara
           id="flowPara270" /><flowPara
           id="flowPara5314">Shuffle the reamining cards together.</flowPara><flowPara
           id="flowPara272" /><flowPara
           id="flowPara262">Randomly remove one card face down and then shuffle the Witchfinder general card back in with the other cards.</flowPara><flowPara
           id="flowPara274" /><flowPara
           id="flowPara266">Deal one card face down to each player.</flowPara><flowPara
           id="flowPara276" /><flowPara
           id="flowPara268">When everyone has their cards the player with the witchfinder general card reveals themselves to the other players.</flowPara><flowPara
           id="flowPara280"> </flowPara><flowPara
           id="flowPara278">The witchfinder general then takes the remaining role card making sure that no one can see what it is.</flowPara></flowRoot>    </g>
    <g
       id="g6584"
       transform="translate(-1.3229166,16.668747)">
      <g
         id="g529"
         transform="translate(92.271344,73.288899)">
        <g
           id="g1641"
           transform="translate(13.687012,-27.476111)">
          <rect
             y="194.48184"
             x="35.6077"
             height="16.952957"
             width="27.902113"
             id="rect1578"
             style="opacity:1;fill:none;fill-opacity:1;fill-rule:nonzero;stroke:#000000;stroke-width:0.33324859;stroke-linecap:butt;stroke-linejoin:round;stroke-miterlimit:4;stroke-dasharray:none;stroke-dashoffset:0;stroke-opacity:1;paint-order:stroke markers fill" />
          <flowRoot
             transform="matrix(0.26458333,0,0,0.26458333,0.86428296,1.3503785)"
             style="font-style:normal;font-variant:normal;font-weight:normal;font-stretch:normal;font-size:16px;line-height:1.25;font-family:BoereTudor;-inkscape-font-specification:BoereTudor;letter-spacing:0px;word-spacing:0px;fill:#000000;fill-opacity:1;stroke:none"
             id="flowRoot1580"
             xml:space="preserve"><flowRegion
               id="flowRegion1582"><rect
                 y="735.12701"
                 x="134.65781"
                 height="73.919128"
                 width="115.30174"
                 id="rect1584" /></flowRegion><flowPara
               id="flowPara1586">CHallenge the Witchfinder General?</flowPara></flowRoot>        </g>
        <g
           id="g1634"
           transform="translate(-76.362387,10.233466)">
          <ellipse
             ry="5.6007118"
             rx="7.9819613"
             cy="138.39999"
             cx="35.189583"
             id="path1566"
             style="opacity:1;fill:none;fill-opacity:1;fill-rule:nonzero;stroke:#000000;stroke-width:0.21107672;stroke-linecap:butt;stroke-linejoin:round;stroke-miterlimit:4;stroke-dasharray:none;stroke-dashoffset:0;stroke-opacity:1;paint-order:stroke markers fill" />
          <text
             id="text1602"
             y="139.36519"
             x="29.753994"
             style="font-style:normal;font-variant:normal;font-weight:normal;font-stretch:normal;font-size:4.23333311px;line-height:1.25;font-family:BoereTudor;-inkscape-font-specification:BoereTudor;letter-spacing:0px;word-spacing:0px;fill:#000000;fill-opacity:1;stroke:none;stroke-width:0.26458332"
             xml:space="preserve"><tspan
               style="stroke-width:0.26458332"
               y="139.36519"
               x="29.753994"
               id="tspan1600"
               sodipodi:role="line">Setup</tspan></text>
        </g>
        <g
           id="g1629"
           transform="translate(-45.137382,-10.52008)">
          <ellipse
             ry="5.342608"
             rx="8.9144831"
             cy="159.83124"
             cx="33.469791"
             id="path1568"
             style="opacity:1;fill:none;fill-opacity:1;fill-rule:nonzero;stroke:#000000;stroke-width:0.19811678;stroke-linecap:butt;stroke-linejoin:round;stroke-miterlimit:4;stroke-dasharray:none;stroke-dashoffset:0;stroke-opacity:1;paint-order:stroke markers fill" />
          <text
             id="text1606"
             y="161.08218"
             x="27.287149"
             style="font-style:normal;font-variant:normal;font-weight:normal;font-stretch:normal;font-size:4.23333311px;line-height:1.25;font-family:BoereTudor;-inkscape-font-specification:BoereTudor;letter-spacing:0px;word-spacing:0px;fill:#000000;fill-opacity:1;stroke:none;stroke-width:0.26458332"
             xml:space="preserve"><tspan
               style="stroke-width:0.26458332"
               y="161.08218"
               x="27.287149"
               id="tspan1604"
               sodipodi:role="line">Voting</tspan></text>
        </g>
        <g
           id="g1619"
           transform="translate(4.1299151,-34.619861)">
          <ellipse
             ry="6.4954653"
             rx="14.962132"
             cy="183.77605"
             cx="19.976042"
             id="path1570"
             style="opacity:1;fill:none;fill-opacity:1;fill-rule:nonzero;stroke:#000000;stroke-width:0.27365133;stroke-linecap:butt;stroke-linejoin:round;stroke-miterlimit:4;stroke-dasharray:none;stroke-dashoffset:0;stroke-opacity:1;paint-order:stroke markers fill" />
          <text
             id="text1610"
             y="185.0397"
             x="7.2676148"
             style="font-style:normal;font-variant:normal;font-weight:normal;font-stretch:normal;font-size:4.23333311px;line-height:1.25;font-family:BoereTudor;-inkscape-font-specification:BoereTudor;letter-spacing:0px;word-spacing:0px;fill:#000000;fill-opacity:1;stroke:none;stroke-width:0.26458332"
             xml:space="preserve"><tspan
               style="stroke-width:0.26458332"
               y="185.0397"
               x="7.2676148"
               id="tspan1608"
               sodipodi:role="line">Interrogation</tspan></text>
        </g>
        <g
           id="g1624"
           transform="translate(44.533669,-70.967969)">
          <ellipse
             ry="5.7167864"
             rx="11.273036"
             cy="219.75937"
             cx="18.123959"
             id="path1572"
             style="opacity:1;fill:none;fill-opacity:1;fill-rule:nonzero;stroke:#000000;stroke-width:0.24351077;stroke-linecap:butt;stroke-linejoin:round;stroke-miterlimit:4;stroke-dasharray:none;stroke-dashoffset:0;stroke-opacity:1;paint-order:stroke markers fill" />
          <text
             id="text1614"
             y="221.41884"
             x="8.8487492"
             style="font-style:normal;font-variant:normal;font-weight:normal;font-stretch:normal;font-size:4.23333311px;line-height:1.25;font-family:BoereTudor;-inkscape-font-specification:BoereTudor;letter-spacing:0px;word-spacing:0px;fill:#000000;fill-opacity:1;stroke:none;stroke-width:0.26458332"
             xml:space="preserve"><tspan
               style="stroke-width:0.26458332"
               y="221.41884"
               x="8.8487492"
               id="tspan1612"
               sodipodi:role="line">Execution</tspan></text>
        </g>
        <path
           style="fill:none;stroke:#000000;stroke-width:0.26458332px;stroke-linecap:butt;stroke-linejoin:miter;stroke-opacity:1;marker-end:url(#marker1953)"
           d="m -33.097106,148.96149 11.78658,0.18709"
           id="path1913"
           inkscape:connector-curvature="0" />
        <path
           style="fill:none;stroke:#000000;stroke-width:0.26458332px;stroke-linecap:butt;stroke-linejoin:miter;stroke-opacity:1;marker-end:url(#marker2097)"
           d="m 48.99026,172.29982 c -0.02304,0.35713 -25.583012,3.60373 -25.069884,-16.08963"
           id="path1921"
           inkscape:connector-curvature="0"
           sodipodi:nodetypes="cc" />
        <path
           style="fill:none;stroke:#000000;stroke-width:0.27406442px;stroke-linecap:butt;stroke-linejoin:miter;stroke-opacity:1;marker-end:url(#marker2155)"
           d="m 49.061923,181.1988 c 0.301103,-0.0935 -62.939294,9.07379 -61.132667,-26.09887"
           id="path1923"
           inkscape:connector-curvature="0"
           sodipodi:nodetypes="cc" />
        <text
           xml:space="preserve"
           style="font-style:normal;font-variant:normal;font-weight:normal;font-stretch:normal;font-size:4.23333311px;line-height:1.25;font-family:BoereTudor;-inkscape-font-specification:BoereTudor;letter-spacing:0px;word-spacing:0px;fill:#000000;fill-opacity:1;stroke:none;stroke-width:0.26458332"
           x="42.689156"
           y="170.64148"
           id="text2213"><tspan
             sodipodi:role="line"
             id="tspan2211"
             x="42.689156"
             y="170.64148"
             style="stroke-width:0.26458332">No</tspan></text>
        <text
           xml:space="preserve"
           style="font-style:normal;font-variant:normal;font-weight:normal;font-stretch:normal;font-size:4.23333311px;line-height:1.25;font-family:BoereTudor;-inkscape-font-specification:BoereTudor;letter-spacing:0px;word-spacing:0px;fill:#000000;fill-opacity:1;stroke:none;stroke-width:0.26458332"
           x="40.373249"
           y="186.89273"
           id="text2217"><tspan
             sodipodi:role="line"
             id="tspan2215"
             x="40.373249"
             y="186.89273"
             style="stroke-width:0.26458332">Yes</tspan></text>
        <path
           style="fill:none;stroke:#000000;stroke-width:0.26458332px;stroke-linecap:butt;stroke-linejoin:miter;stroke-opacity:1;marker-end:url(#marker1953-5)"
           d="m -2.9806881,149.50717 11.78658,0.18709"
           id="path1913-5"
           inkscape:connector-curvature="0" />
        <path
           style="fill:none;stroke:#000000;stroke-width:0.26458332px;stroke-linecap:butt;stroke-linejoin:miter;stroke-opacity:1;marker-end:url(#marker1953-5-6)"
           d="m 39.088061,148.978 11.78658,0.18709"
           id="path1913-5-9"
           inkscape:connector-curvature="0" />
        <path
           style="fill:none;stroke:#000000;stroke-width:0.26458332px;stroke-linecap:butt;stroke-linejoin:miter;stroke-opacity:1;marker-end:url(#marker1953-5-1)"
           d="m 62.555609,154.59123 -0.18709,11.78658"
           id="path1913-5-0"
           inkscape:connector-curvature="0" />
      </g>
      <text
         inkscape:transform-center-y="-82.319006"
         inkscape:transform-center-x="8.9802561"
         xml:space="preserve"
         style="font-style:normal;font-variant:normal;font-weight:normal;font-stretch:normal;font-size:8.80587482px;line-height:1.25;font-family:BoereTudor;-inkscape-font-specification:BoereTudor;letter-spacing:0px;word-spacing:0px;fill:#000000;fill-opacity:1;stroke:none;stroke-width:0.55036718"
         x="79.28894"
         y="210.92108"
         id="text1194-6"><tspan
           sodipodi:role="line"
           id="tspan1192-7"
           x="79.28894"
           y="210.92108"
           style="stroke-width:0.55036718">Order of Play</tspan><tspan
           id="tspan5334"
           sodipodi:role="line"
           x="79.28894"
           y="221.92842"
           style="stroke-width:0.55036718" /></text>
    </g>
  </g>
</svg>
