<?xml version="1.0" encoding="UTF-8" standalone="no"?>
<!-- Created with Inkscape (http://www.inkscape.org/) -->

<svg
   xmlns:dc="http://purl.org/dc/elements/1.1/"
   xmlns:cc="http://creativecommons.org/ns#"
   xmlns:rdf="http://www.w3.org/1999/02/22-rdf-syntax-ns#"
   xmlns:svg="http://www.w3.org/2000/svg"
   xmlns="http://www.w3.org/2000/svg"
   xmlns:sodipodi="http://sodipodi.sourceforge.net/DTD/sodipodi-0.dtd"
   xmlns:inkscape="http://www.inkscape.org/namespaces/inkscape"
   width="210mm"
   height="297mm"
   viewBox="0 0 210 297"
   version="1.1"
   id="svg8"
   inkscape:version="0.92.5 (2060ec1f9f, 2020-04-08)"
   sodipodi:docname="rules_page_1.svg"
   inkscape:export-filename="/home/terry/test.png"
   inkscape:export-xdpi="96"
   inkscape:export-ydpi="96">
  <defs
     id="defs2">
    <marker
       inkscape:stockid="Arrow1Lend"
       orient="auto"
       refY="0"
       refX="0"
       id="marker1953"
       style="overflow:visible"
       inkscape:isstock="true">
      <path
         inkscape:connector-curvature="0"
         id="path1951"
         d="M 0,0 5,-5 -12.5,0 5,5 Z"
         style="fill:#000000;fill-opacity:1;fill-rule:evenodd;stroke:#000000;stroke-width:1.00000003pt;stroke-opacity:1"
         transform="matrix(-0.8,0,0,-0.8,-10,0)" />
    </marker>
    <marker
       inkscape:stockid="Arrow1Lend"
       orient="auto"
       refY="0"
       refX="0"
       id="marker1987"
       style="overflow:visible"
       inkscape:isstock="true">
      <path
         inkscape:connector-curvature="0"
         id="path1985"
         d="M 0,0 5,-5 -12.5,0 5,5 Z"
         style="fill:#000000;fill-opacity:1;fill-rule:evenodd;stroke:#000000;stroke-width:1.00000003pt;stroke-opacity:1"
         transform="matrix(-0.8,0,0,-0.8,-10,0)" />
    </marker>
    <marker
       inkscape:isstock="true"
       style="overflow:visible"
       id="marker2045"
       refX="0"
       refY="0"
       orient="auto"
       inkscape:stockid="Arrow1Lend">
      <path
         inkscape:connector-curvature="0"
         transform="matrix(-0.8,0,0,-0.8,-10,0)"
         style="fill:#000000;fill-opacity:1;fill-rule:evenodd;stroke:#000000;stroke-width:1.00000003pt;stroke-opacity:1"
         d="M 0,0 5,-5 -12.5,0 5,5 Z"
         id="path2043" />
    </marker>
    <marker
       inkscape:isstock="true"
       style="overflow:visible"
       id="marker2097"
       refX="0"
       refY="0"
       orient="auto"
       inkscape:stockid="Arrow1Lend">
      <path
         inkscape:connector-curvature="0"
         transform="matrix(-0.8,0,0,-0.8,-10,0)"
         style="fill:#000000;fill-opacity:1;fill-rule:evenodd;stroke:#000000;stroke-width:1.00000003pt;stroke-opacity:1"
         d="M 0,0 5,-5 -12.5,0 5,5 Z"
         id="path2095" />
    </marker>
    <marker
       inkscape:isstock="true"
       style="overflow:visible"
       id="marker2155"
       refX="0"
       refY="0"
       orient="auto"
       inkscape:stockid="Arrow1Lend">
      <path
         inkscape:connector-curvature="0"
         transform="matrix(-0.8,0,0,-0.8,-10,0)"
         style="fill:#000000;fill-opacity:1;fill-rule:evenodd;stroke:#000000;stroke-width:1.00000003pt;stroke-opacity:1"
         d="M 0,0 5,-5 -12.5,0 5,5 Z"
         id="path2153" />
    </marker>
    <marker
       inkscape:stockid="Arrow1Lend"
       orient="auto"
       refY="0"
       refX="0"
       id="marker1953-5"
       style="overflow:visible"
       inkscape:isstock="true">
      <path
         inkscape:connector-curvature="0"
         id="path1951-3"
         d="M 0,0 5,-5 -12.5,0 5,5 Z"
         style="fill:#000000;fill-opacity:1;fill-rule:evenodd;stroke:#000000;stroke-width:1.00000003pt;stroke-opacity:1"
         transform="matrix(-0.8,0,0,-0.8,-10,0)" />
    </marker>
    <marker
       inkscape:stockid="Arrow1Lend"
       orient="auto"
       refY="0"
       refX="0"
       id="marker1953-5-6"
       style="overflow:visible"
       inkscape:isstock="true">
      <path
         inkscape:connector-curvature="0"
         id="path1951-3-2"
         d="M 0,0 5,-5 -12.5,0 5,5 Z"
         style="fill:#000000;fill-opacity:1;fill-rule:evenodd;stroke:#000000;stroke-width:1.00000003pt;stroke-opacity:1"
         transform="matrix(-0.8,0,0,-0.8,-10,0)" />
    </marker>
    <marker
       inkscape:stockid="Arrow1Lend"
       orient="auto"
       refY="0"
       refX="0"
       id="marker1953-5-1"
       style="overflow:visible"
       inkscape:isstock="true">
      <path
         inkscape:connector-curvature="0"
         id="path1951-3-27"
         d="M 0,0 5,-5 -12.5,0 5,5 Z"
         style="fill:#000000;fill-opacity:1;fill-rule:evenodd;stroke:#000000;stroke-width:1.00000003pt;stroke-opacity:1"
         transform="matrix(-0.8,0,0,-0.8,-10,0)" />
    </marker>
  </defs>
  <sodipodi:namedview
     id="base"
     pagecolor="#ffffff"
     bordercolor="#666666"
     borderopacity="1.0"
     inkscape:pageopacity="0.0"
     inkscape:pageshadow="2"
     inkscape:zoom="0.5"
     inkscape:cx="990.4775"
     inkscape:cy="358.93012"
     inkscape:document-units="mm"
     inkscape:current-layer="g6629"
     showgrid="false"
     units="mm"
     inkscape:window-width="1848"
     inkscape:window-height="1016"
     inkscape:window-x="72"
     inkscape:window-y="27"
     inkscape:window-maximized="1" />
  <metadata
     id="metadata5">
    <rdf:RDF>
      <cc:Work
         rdf:about="">
        <dc:format>image/svg+xml</dc:format>
        <dc:type
           rdf:resource="http://purl.org/dc/dcmitype/StillImage" />
        <dc:title />
      </cc:Work>
    </rdf:RDF>
  </metadata>
  <g
     inkscape:label="background"
     inkscape:groupmode="layer"
     id="layer1"
     sodipodi:insensitive="true">
    <rect
       style="opacity:1;fill:#ffffff;fill-opacity:1;fill-rule:nonzero;stroke:none;stroke-width:1;stroke-linecap:butt;stroke-linejoin:round;stroke-miterlimit:4;stroke-dasharray:1, 1;stroke-dashoffset:0;stroke-opacity:1;paint-order:stroke markers fill"
       id="rect18"
       height="297"
       x="0"
       y="0"
       width="210" />
  </g>
  <g
     inkscape:groupmode="layer"
     id="layer2"
     inkscape:label="Title"
     sodipodi:insensitive="true">
    <g
       transform="matrix(0.52170346,0,0,0.52170346,46.706377,-28.837622)"
       id="g18">
      <path
         style="fill:#000000;stroke-width:0.37756673"
         d="m 154.17466,94.997868 c -1.27889,0 -7.22633,5.680702 -6.7516,6.448812 0.11218,0.18174 0.8312,-0.007 1.59742,-0.41597 1.58854,-0.85136 2.55689,-0.94863 2.95986,-0.2966 0.32343,0.52333 0.48363,12.76753 0.16692,12.75904 -0.67409,-0.0177 -3.22596,-1.10716 -3.33069,-1.42145 -0.12608,-0.37839 -0.84215,0.13857 -3.60389,2.60128 -1.48594,1.32512 -1.52616,1.42396 -1.4395,3.56572 0.0489,1.21165 0.21485,2.42801 0.36878,2.70304 0.1539,0.27492 1.29068,1.17587 2.5262,2.00191 2.61263,1.74683 3.5674,1.72292 5.15499,-0.13054 0.56379,-0.65822 1.03224,-1.32438 1.04073,-1.48012 0.0356,-0.65472 0.76552,-0.20714 1.22454,0.75072 0.27257,0.56854 0.81291,1.0949 1.20075,1.16959 1.05012,0.20213 4.78883,-1.07409 5.03642,-1.71928 0.30486,-0.79446 -0.63525,-1.2641 -2.02285,-1.01041 -0.65112,0.11897 -1.26821,0.074 -1.3714,-0.10064 -0.31292,-0.52874 -0.63046,-3.88251 -0.85452,-9.02757 -0.7113,-16.335522 -0.7184,-16.397772 -1.90226,-16.397772 z m -70.52086,0.77369 c -0.549573,0.002 -1.07828,0.18467 -1.360745,0.52508 -0.248002,0.29901 -0.814122,0.59652 -1.257747,0.66089 -0.499524,0.0725 -0.890425,0.47637 -1.026423,1.06086 -0.141185,0.6069 -0.618548,1.08039 -1.336916,1.32588 -1.907916,0.65192 -2.572977,1.178132 -2.320288,1.836612 0.314812,0.8204 1.370012,0.76115 2.524546,-0.14204 0.519178,-0.40608 1.292698,-0.74202 1.719276,-0.74662 0.764502,-0.009 0.775459,0.1417 0.755247,10.46914 -0.01213,5.76257 0.122211,10.87176 0.296598,11.35356 0.258673,0.71502 0.171938,0.91376 -0.472187,1.0822 -0.750478,0.1962 -0.988391,0.54788 -0.620284,0.91602 0.240317,0.2403 4.278704,0.0539 4.718115,-0.21783 0.506674,-0.31313 0.05876,-1.33528 -0.585011,-1.33528 -0.39885,0 -0.525914,-0.63095 -0.525914,-2.61073 v -2.6103 l 1.746361,-0.97636 c 2.25355,-1.25955 2.990256,-1.2995 2.339968,-0.12663 -0.258956,0.46724 -0.420333,1.01936 -0.358118,1.22701 0.0621,0.20775 0.101118,1.59122 0.08633,3.07427 -0.03129,3.20004 0.207729,3.48994 3.024254,3.67033 2.46995,0.15834 2.977836,-9.5e-4 2.977836,-0.94187 0,-0.5093 -0.351001,-0.79452 -1.182299,-0.96075 l -1.181851,-0.23618 0.281755,-2.49172 c 0.52641,-4.65276 0.32595,-5.11952 -2.472059,-5.74817 -1.513076,-0.33996 -1.764811,-0.27967 -3.273213,0.78355 -0.898684,0.63343 -1.73064,1.15191 -1.848909,1.15191 -0.320284,0 0.201528,-12.54121 0.673574,-16.185292 0.33611,-2.59528 0.317012,-3.21735 -0.108138,-3.48655 -0.346823,-0.21959 -0.786807,-0.32384 -1.214265,-0.32079 z M 55.803583,102.3529 c -0.516369,-0.002 -1.127648,0.0177 -1.84685,0.0624 -3.489085,0.21604 -3.862962,0.27997 -4.824729,0.82089 -1.049359,0.59021 -0.821284,1.06198 0.671534,1.38986 0.618214,0.13576 1.204475,0.37692 1.302905,0.53618 0.281739,0.45582 -0.501797,2.91961 -1.858367,5.84291 -0.684619,1.47533 -1.436381,3.2655 -1.670452,3.97804 -0.934585,2.84509 -3.059928,5.62583 -3.059928,4.00343 0,-0.30435 -0.594945,-1.63548 -1.32176,-2.95779 -0.726803,-1.32227 -1.321356,-2.57995 -1.321356,-2.79489 0,-0.81995 2.894152,-5.56119 4.247557,-6.95835 1.542817,-1.59275 1.662732,-1.91854 0.929588,-2.52702 -0.501369,-0.41608 -5.123339,0.0781 -6.309767,0.67482 -0.784667,0.39459 -0.587438,0.91874 0.43688,1.16054 1.249562,0.29505 1.608686,2.34605 0.774103,4.42068 -0.354712,0.88176 -0.729742,1.60389 -0.833609,1.60442 -0.398918,9.5e-4 -1.988737,-4.02693 -2.08518,-5.28423 -0.05567,-0.72677 -0.118988,-1.43933 -0.140544,-1.58347 -0.04532,-0.30073 -6.342564,-0.0426 -6.866868,0.28145 -0.190591,0.11778 -0.346218,0.54375 -0.346218,0.94681 0,0.53001 0.261314,0.73309 0.943934,0.73309 0.566989,0 0.943947,0.21545 0.943947,0.53987 0,0.29708 0.353308,1.10424 0.785203,1.79353 2.223522,3.54907 3.745391,6.37895 3.745391,6.96408 0,0.81565 -1.548612,4.29471 -1.91171,4.29471 -0.146788,0 -1.744162,-2.90569 -3.549697,-6.45703 l -3.282685,-6.45663 0.785203,-0.73186 c 0.977398,-0.91062 0.975376,-0.99319 -0.04604,-1.82021 -0.667596,-0.54059 -1.057829,-0.59991 -1.982231,-0.30111 -0.633073,0.20452 -2.170453,0.34999 -3.416447,0.32327 -2.638714,-0.0565 -3.323845,0.27317 -3.148089,1.51621 0.113371,0.80155 0.3468,0.91383 2.109806,1.01533 1.373628,0.0791 1.982242,0.27374 1.982242,0.63297 0,0.69173 2.68661,6.21866 3.745855,7.70623 1.545874,2.17102 4.912238,9.10966 4.694667,9.67653 -0.413801,1.07832 0.973829,0.57061 1.565051,-0.57268 0.322164,-0.623 0.82477,-1.13265 1.117061,-1.13265 0.335035,0 0.520451,-0.38364 0.502095,-1.03828 -0.01475,-0.57108 0.497181,-2.05804 1.140068,-3.30404 0.642864,-1.24596 1.176806,-2.06635 1.186798,-1.82306 0.0083,0.24327 0.774698,1.57051 1.699159,2.94917 0.924496,1.37862 1.785501,2.83602 1.913327,3.2388 0.127849,0.40271 0.375066,0.73223 0.549299,0.73223 0.174316,0 0.227587,0.33991 0.118986,0.75522 -0.355092,1.35784 0.54905,0.79214 1.155201,-0.7228 0.325292,-0.81299 0.771343,-1.58958 0.991103,-1.72542 0.219891,-0.13577 0.30878,-0.3939 0.197693,-0.57354 -0.110992,-0.17964 1.219429,-3.09879 2.956156,-6.48699 1.736762,-3.38817 3.460819,-6.96476 3.831555,-7.94821 0.760209,-2.01654 1.354416,-2.64105 2.643534,-2.77854 1.26097,-0.13445 2.831077,-1.24869 2.601681,-1.84643 -0.200072,-0.52129 -0.895838,-0.75782 -2.444948,-0.76837 z m 68.205897,0.64119 c -0.69473,0.0148 -2.19698,0.17433 -3.87501,0.41967 -4.63923,0.6781 -8.19126,0.76476 -9.99816,0.24416 -0.97453,-0.28087 -1.33423,-0.23528 -1.66272,0.21041 -0.23054,0.31286 -0.79485,0.56862 -1.25367,0.56862 -0.64911,0 -0.80723,0.18851 -0.71338,0.84958 0.1067,0.75254 0.36833,0.8625 2.29159,0.96282 2.07726,0.10826 2.17151,0.15718 2.17707,1.13262 0.002,0.56073 0.16721,2.97363 0.3643,5.36174 0.37104,4.49912 0.009,9.12426 -0.73595,9.37217 -0.21901,0.0732 -0.56248,0.44006 -0.76344,0.81554 -0.33809,0.63172 -0.13723,0.68416 2.69071,0.70272 1.68086,0.0121 3.14965,0.11373 3.26419,0.22819 0.42159,0.42154 1.53299,0.18938 2.38181,-0.49804 0.81262,-0.658 0.82966,-0.74973 0.24652,-1.33285 -0.4098,-0.4098 -0.94371,-0.54632 -1.54492,-0.39543 -1.1698,0.29358 -1.23813,0.15651 -1.56216,-3.12926 -0.26103,-2.64641 -0.24121,-2.74346 0.63339,-3.07591 0.49658,-0.18885 1.11156,-0.59452 1.36648,-0.90168 0.77794,-0.93738 2.0792,-0.65787 2.91141,0.62518 0.90328,1.39262 1.48721,1.25039 1.54166,-0.37537 0.21635,-2.66462 0.0926,-2.22809 0.35401,-4.06335 0.35014,-1.86637 -0.41705,-2.04104 -1.30657,-0.29742 -0.73533,1.44136 -0.81125,1.48166 -3.12965,1.6598 -1.30674,0.10028 -2.4056,0.16213 -2.44215,0.13724 -0.0364,-0.0238 -0.12127,-1.56353 -0.18881,-3.41969 l -0.12261,-3.375 3.23628,0.0486 c 3.05974,0.0458 3.30319,0.11158 4.47604,1.20732 0.6822,0.63727 1.37375,1.15887 1.53631,1.15887 0.64064,0 0.84077,-4.19525 0.22937,-4.80665 -0.0298,-0.0298 -0.17049,-0.0396 -0.40204,-0.0343 z m -66.138714,2.11311 c -0.226423,-0.007 -0.43952,0.21041 -0.856152,0.68958 -1.002691,1.15316 -0.994637,1.45506 0.05175,1.92195 1.904048,0.84962 3.034017,-0.86899 1.458378,-2.21813 -0.293577,-0.25128 -0.477803,-0.38936 -0.653927,-0.3934 z m 4.415723,1.5954 c -1.07496,0 -1.510484,0.20005 -1.849754,0.84957 -0.667048,1.27698 -0.971783,7.60824 -0.683429,14.20224 0.03914,0.89463 -0.167809,1.41753 -0.699467,1.76767 -0.657329,0.43289 -0.901834,0.37915 -1.88788,-0.41598 -1.10908,-0.89436 -1.131088,-0.97857 -1.048159,-4.03337 0.09518,-3.50408 -0.379288,-5.19642 -1.457116,-5.19642 -0.938545,0 -4.563724,3.83941 -4.081794,4.32302 0.225804,0.22642 0.524174,0.19179 0.81022,-0.0943 0.249191,-0.24918 0.778909,-0.45293 1.1769,-0.45293 0.566239,0 0.674138,0.18439 0.496004,0.84919 -0.125173,0.46727 -0.230241,1.74163 -0.232906,2.83183 -0.0072,1.83402 -0.07209,1.98224 -0.902523,1.98224 -1.031991,0 -1.936407,0.89607 -1.544483,1.53016 0.176981,0.28649 0.850334,0.34204 2.0146,0.16663 0.961886,-0.145 4.015091,-0.25037 6.784856,-0.2341 4.376917,0.0268 5.235698,-0.0728 6.561658,-0.74906 1.395006,-0.71172 1.474152,-0.82973 0.924651,-1.37924 -0.524388,-0.52432 -0.735013,-0.5341 -1.653215,-0.0784 -0.578778,0.28738 -1.191698,0.52949 -1.36197,0.53863 -0.170474,0.009 -0.340056,-1.59746 -0.377422,-3.57023 l -0.06804,-3.58666 2.170928,-0.10742 c 2.378461,-0.11754 2.515911,0.0446 1.576116,1.86205 -0.505402,0.97738 -0.526577,1.44442 -0.139377,3.09643 0.250654,1.0699 0.63249,2.16724 0.848336,2.43882 0.805367,1.01323 3.095104,1.64453 5.848274,1.61221 3.035015,-0.0356 4.209726,-0.55044 4.946963,-2.16849 0.623139,-1.36757 -0.0207,-1.95241 -1.034596,-0.93902 -1.32621,1.32619 -2.780662,1.89566 -3.833614,1.50102 -1.896685,-0.71083 -4.15316,-3.6637 -4.15316,-5.43474 0,-0.86173 2.385336,-2.80128 3.447579,-2.80311 0.594195,-9.5e-4 1.429196,0.43559 2.07696,1.08629 0.595731,0.59841 1.465099,1.20443 1.932208,1.34681 0.690318,0.21041 0.92189,0.0684 1.236832,-0.76018 0.469321,-1.23433 0.179051,-2.32223 -0.689603,-2.58526 -2.642642,-0.80032 -4.373206,-0.96423 -5.769057,-0.54602 -0.818868,0.24535 -1.67226,0.66717 -1.896505,0.93738 -0.332026,0.40006 -0.577029,0.38039 -1.319703,-0.10623 -0.664265,-0.43524 -1.526365,-0.55323 -3.174405,-0.43405 l -2.262816,0.16361 0.0072,-1.72296 c 0.0024,-0.94771 0.239412,-2.39457 0.525102,-3.21542 0.688545,-1.97838 0.436248,-2.47204 -1.262672,-2.47204 z m 66.832051,4.31152 c -0.25039,9.6e-4 -0.57152,0.0677 -0.93822,0.20717 -0.94011,0.35744 -1.20755,0.78702 -0.76508,1.22946 0.31348,0.3135 1.59347,-0.0955 2.06056,-0.6584 0.40251,-0.48494 0.19386,-0.78366 -0.35726,-0.77823 z m 45.253,0.56284 c -0.66278,0.0531 -1.53637,0.6083 -2.39569,1.61222 -0.74302,0.86803 -1.35092,1.8836 -1.35092,2.25708 0,0.58765 0.12726,0.621 0.94556,0.24831 0.52006,-0.23676 1.03029,-0.34566 1.1339,-0.2421 0.31694,0.31692 -0.27435,3.73731 -0.72774,4.20981 -0.52874,0.55106 -0.51052,0.96637 0.0905,2.0487 0.57461,1.03455 0.86397,1.05417 1.99864,0.13559 0.75441,-0.6109 0.90311,-1.12971 1.02722,-3.58708 0.12696,-2.51452 0.23409,-2.87285 0.85902,-2.87285 0.50447,0 0.7138,0.26932 0.7138,0.91851 0,1.2114 1.18264,1.57902 2.43676,0.75731 0.70143,-0.45961 0.96119,-0.95931 0.96119,-1.84933 0,-1.96775 -1.94778,-3.15039 -3.82048,-2.31987 -0.43149,0.19149 -0.67053,0.0424 -0.81392,-0.50582 -0.15421,-0.58984 -0.54245,-0.85168 -1.05799,-0.81022 z m -7.27582,0.16869 c -0.12844,-0.002 -0.25451,0.0121 -0.37576,0.0497 -0.4481,0.1397 -1.23953,0.35176 -1.75868,0.47096 -1.46641,0.33659 -3.26998,1.88859 -4.14414,3.56572 -0.69196,1.32755 -0.73775,1.70401 -0.35281,2.89992 0.24327,0.75588 0.62301,1.6014 0.84383,1.87887 0.45034,0.5657 3.06329,1.8252 4.21966,2.0339 0.41533,0.0747 1.43464,0.009 2.26531,-0.14647 0.83065,-0.15537 1.62394,-0.29004 1.76275,-0.29905 0.13878,-0.009 0.62729,-0.62367 1.08589,-1.36568 0.64621,-1.04562 0.732,-1.44875 0.38148,-1.79312 -0.34786,-0.34181 -0.60179,-0.26132 -1.10144,0.34951 -0.85666,1.04719 -1.80479,1.52007 -3.63917,1.81569 -1.45758,0.23498 -1.53964,0.19147 -2.35847,-1.25573 -0.64747,-1.14439 -0.73711,-1.57107 -0.37778,-1.80132 0.82411,-0.52808 3.08401,-1.23999 3.95464,-1.24585 1.1204,-0.009 2.14665,-1.59936 1.83415,-2.84458 -0.32019,-1.27567 -1.33994,-2.2832 -2.23946,-2.31246 z m -34.24859,1.49365 c -0.5916,-0.0148 -1.06651,0.44305 -1.97651,1.7595 -0.82974,1.20032 -0.82349,1.96103 0.0148,1.8202 0.57982,-0.0973 0.64934,0.18497 0.56653,2.30182 -0.0677,1.72721 -0.2714,2.54203 -0.71832,2.86873 -0.36542,0.26724 -0.50444,0.64995 -0.33516,0.92383 0.16279,0.2631 0.64212,0.37332 1.09616,0.25155 0.4438,-0.11897 1.3644,-0.21898 2.04581,-0.22195 1.46715,-0.007 2.02258,-0.92898 1.00632,-1.6721 -0.48383,-0.3538 -0.68901,-1.02131 -0.70805,-2.30384 -0.0237,-1.61855 0.0903,-1.87523 1.10556,-2.47657 1.75944,-1.04213 2.33578,-0.90973 2.61933,0.60179 0.13708,0.73037 0.12368,1.531 -0.0298,1.7792 -0.4338,0.70192 -0.1598,3.0364 0.43363,3.69205 0.62842,0.69439 3.5121,0.90409 4.23073,0.3077 0.40058,-0.33244 0.36848,-0.50596 -0.17017,-0.91484 -0.36569,-0.2776 -1.06702,-0.5099 -1.55847,-0.51646 -0.77725,-0.0121 -0.86382,-0.14746 -0.66334,-1.05064 0.12663,-0.57105 0.33983,-1.8419 0.4734,-2.82442 0.22226,-1.63397 0.14622,-1.88541 -0.89102,-2.94627 l -1.13388,-1.15974 -1.95514,1.15276 c -1.07526,0.63398 -2.08802,1.15274 -2.25056,1.15274 -0.16245,0 -0.22315,-0.49325 -0.13461,-1.0957 0.12638,-0.86049 -0.009,-1.14933 -0.63296,-1.34723 -0.15572,-0.0495 -0.29834,-0.0784 -0.43486,-0.0819 z m -5.67928,0.0631 c -0.59213,-0.0438 -1.184,0.47201 -1.83372,1.57324 -0.96046,1.62775 -0.97747,2.13702 -0.0619,1.84644 0.60317,-0.1915 0.7494,0.0341 0.96773,1.48994 0.32231,2.14938 0.0702,2.96052 -1.11828,3.59651 -1.37046,0.73346 -1.16106,1.43788 0.47831,1.60935 3.20443,0.33519 3.43325,0.30216 3.69907,-0.53534 0.16751,-0.52824 0.0687,-0.91564 -0.28322,-1.11257 -0.41903,-0.23439 -0.52039,-1.10336 -0.45371,-3.88079 0.0722,-3.01247 -0.0207,-3.67449 -0.58133,-4.18272 -0.27492,-0.24889 -0.5439,-0.38412 -0.81304,-0.40406 z m 38.38909,1.18229 c 0.21485,0.002 0.36079,0.12301 0.54561,0.34582 0.54993,0.6626 0.58054,0.62303 -1.10475,1.44195 -2.57687,1.25215 -3.31503,0.19977 -0.83689,-1.19295 0.73043,-0.41052 1.11993,-0.59898 1.39603,-0.59482 z m -14.86676,0.0861 c 0.83345,-0.0148 1.59543,0.0761 1.8054,0.29536 0.17462,0.18231 0.3747,1.3811 0.44469,2.66401 l 0.12727,2.3326 -1.60113,1.16013 c -2.06439,1.49544 -3.29338,1.5131 -4.04571,0.0583 -0.47184,-0.91243 -0.49726,-1.47998 -0.14738,-3.304 0.23231,-1.21119 0.62371,-2.41981 0.86929,-2.6862 0.28648,-0.31077 1.47594,-0.50184 2.54754,-0.52019 z"
         id="path840"
         inkscape:connector-curvature="0"
         sodipodi:nodetypes="cccccccccsccccccccscsscsccccssccssccccssscccsssscccssccscssssccscccccssssssccccccssssccscssscsccccsssscccscscccsscscccccccccccscccccsccccccccccsccscssccsscsccsccccsccsccssccccscscccccscccscccscccscssscsccccccsccscccccccsccccccsccccccscccccccscccsscccccscscccccccsscscscscccscscccccccc" />
      <path
         sodipodi:nodetypes="cccsccccccccccscccccscsccccsccscccccccccccscccsccccccscscccssssscsssscccsccccssccsssss"
         inkscape:connector-curvature="0"
         id="path526"
         d="m 105.58701,160.54529 c 0.36086,-0.75027 0.68675,-3.64375 0.72449,-6.43026 0.0552,-4.08765 0.32129,-5.11493 1.37646,-5.31819 0.71897,-0.13901 1.30759,0.10678 1.30759,0.54498 0,0.48423 1.02359,0.36915 2.61003,-0.29366 2.24094,-0.93633 2.83232,-0.93476 4.183,0.009 1.23772,0.86719 2.06422,0.91598 3.87758,0.23199 1.26755,-0.4787 3.20233,-0.64441 4.29939,-0.36915 1.81934,0.4566 2.02694,0.9296 2.36138,5.38005 0.20161,2.68377 0.63152,5.49339 0.95418,6.24357 0.50172,1.16573 0.15006,1.36228 -2.41882,1.35206 -2.04065,-0.008 -2.65754,-0.23291 -1.92052,-0.69964 0.75304,-0.47687 1.06465,-2.18372 1.0166,-5.56685 -0.0737,-4.99774 -0.88744,-6.42823 -3.20077,-5.60974 -2.6591,0.94064 -3.18843,2.0134 -3.18843,6.46247 0,2.88363 0.35258,4.65833 0.97434,4.90928 0.53578,0.21633 -0.58365,0.4207 -2.48732,0.45477 -2.91695,0.0552 -3.26281,-0.0921 -2.19825,-0.9123 0.85706,-0.66098 1.34349,-2.49192 1.51297,-5.69637 0.26973,-5.09652 -0.25776,-5.62282 -4.62165,-4.61607 -1.56978,0.36179 -1.75371,0.87731 -1.75371,4.91038 0,2.47811 0.4207,4.92658 0.93531,5.441 0.72726,0.72726 0.27617,0.93531 -2.032,0.93531 -2.55608,0 -2.87635,-0.18872 -2.31167,-1.36393 z m -11.788482,-0.14951 c 1.547037,-1.17502 2.362303,-7.64993 1.311276,-10.41444 -0.550508,-1.44678 -0.405976,-1.76365 0.803667,-1.76365 0.811032,0 1.613502,0.41703 1.783258,0.92583 0.219098,0.65638 0.855219,0.54315 2.186932,-0.3894 2.445889,-1.71311 3.090299,-1.65935 3.090299,0.25776 0,1.25761 -0.36363,1.48241 -1.81152,1.11906 -2.614082,-0.65638 -3.873713,1.26119 -3.467276,5.27769 0.185036,1.83214 0.609424,3.94497 0.942767,4.69515 0.526572,1.18478 0.15926,1.36071 -2.790281,1.33926 -2.96915,-0.0184 -3.226729,-0.15374 -2.04949,-1.04735 z m 35.010332,13.10574 c -1.22364,-1.22363 -0.33694,-2.45896 2.09294,-2.91474 3.55942,-0.66742 5.79275,-4.60309 4.58256,-8.07488 -0.75396,-2.16161 -0.66558,-2.42518 0.93982,-2.82821 1.27482,-0.32036 2.23913,-1.66827 3.44306,-4.81427 1.99067,-5.20008 1.97143,-5.00851 0.50356,-5.00851 -1.94454,0 -1.311,-1.35427 0.89204,-1.90726 2.22588,-0.55879 4.43509,0.7558 2.93334,1.74487 -1.26405,0.83312 -5.40906,10.16036 -6.47997,14.58173 -1.28973,5.3251 -4.27324,9.74287 -6.57985,9.74287 -0.99414,0 -2.04139,-0.23382 -2.32723,-0.52012 z m 3.68177,-19.15895 c -1.22134,-3.82694 -1.92199,-4.92474 -3.2677,-5.12045 -3.60729,-0.52473 -1.49714,-1.54354 2.95976,-1.42939 2.57008,0.0644 4.67453,0.38296 4.67655,0.70425 0.002,0.32128 -0.49343,0.58457 -1.10046,0.58457 -1.75371,0 -1.86933,1.70325 -0.3443,5.06632 1.7932,3.95371 1.80186,5.06623 0.0368,5.06623 -1.04265,0 -1.81281,-1.26607 -2.96354,-4.87143 z m -44.43572,6.44545 c -0.184116,-0.18411 -2.347114,-0.44556 -4.806446,-0.57996 -2.459332,-0.13441 -4.471538,-0.51001 -4.471538,-0.83405 0,-0.32404 0.701483,-0.58917 1.55882,-0.58917 0.857061,0 1.55882,-0.371 1.55882,-0.82392 0,-2.04102 -1.815754,-7.74964 -2.464948,-7.74964 -0.39677,0 -0.644407,-0.43819 -0.550507,-0.97425 0.325885,-1.85828 -1.726366,-7.59939 -2.716083,-7.59939 -0.939269,0 -3.621658,4.6377 -3.621658,6.26179 0,0.41426 1.227595,0.75303 2.727958,0.75303 1.50515,0 2.727958,0.39401 2.727958,0.87916 0,0.58733 -1.023686,0.71529 -3.087905,0.38572 -3.492961,-0.55879 -4.165813,0.12796 -5.122573,5.22826 -0.486987,2.59806 -0.354424,3.00892 1.09991,3.38912 3.096743,0.81011 1.667725,1.80977 -2.586188,1.80977 -4.861589,0 -5.915009,-0.85338 -3.227005,-2.61491 1.752326,-1.14815 8.156532,-13.31648 10.635841,-20.2086 0.619551,-1.72231 1.502112,-2.85656 2.122584,-2.72796 0.924171,0.19148 6.341974,12.93481 6.384965,15.01799 0.03682,1.72637 4.242958,8.97456 5.209476,8.97456 0.572602,0 1.04173,0.52658 1.04173,1.16914 0,1.07036 -1.618013,1.62961 -2.413303,0.83405 z m -7.329482,-16.03311 c 0.265127,-0.42899 0.11047,-0.77974 -0.343377,-0.77974 -0.453846,0 -0.825761,0.35075 -0.825761,0.77974 0,0.42899 0.154658,0.77973 0.343377,0.77973 0.188719,0 0.560633,-0.35074 0.825761,-0.77973 z"
         style="fill:#000000;stroke-width:0.77942526" />
    </g>
  </g>
  <g
     inkscape:groupmode="layer"
     id="layer3"
     inkscape:label="border"
     sodipodi:insensitive="true">
    <path
       style="fill:#000000;stroke-width:0.49311849"
       d="M 6.3333312,291.42497 C 6.1047655,290.98297 5.7805079,290.07725 5.6127631,289.4123 5.4450088,288.74734 5.210531,224.89422 5.091697,147.51647 4.9188329,34.956001 4.976865,6.6463608 5.3819625,5.9128298 5.831988,5.0979206 16.881157,4.9964505 104.76914,5.0000856 c 93.58026,0.0039 98.89143,0.06038 99.07825,1.0550782 0.10856,0.578056 0.32289,2.259246 0.47627,3.735966 0.21905,2.1088852 0.43044,62.0325822 0.56521,160.2304702 0.003,2.16113 -0.0675,9.98064 -0.15662,17.37672 0.64078,7.2889 -0.0589,14.53696 -0.143,21.31191 0.0198,3.78986 0.23958,30.9736 0.28106,34.75932 0.0255,2.32736 -0.0507,13.43894 -0.16937,24.69239 -0.16479,15.62784 -0.33923,20.64641 -0.7385,21.24644 -0.42065,0.63216 -10.37638,0.85687 -50.97527,1.15055 -27.74889,0.20073 -58.869668,0.49036 -69.157286,0.64363 -67.690995,1.00845 -77.0762023,1.03538 -77.4966005,0.22241 z M 22.687488,287.9371 c 7.525478,-0.0298 9.431119,-0.10404 9.611232,-0.37471 0.167936,-0.25236 -4.578841,-0.51002 -7.599966,-0.41254 -0.774331,0.0249 -4.485118,0.10406 -8.24618,0.17563 -3.761073,0.0715 -6.204752,0.29839 -5.430421,0.50399 0.77435,0.2056 2.765492,0.31767 4.424783,0.24906 1.659301,-0.0686 4.91754,-0.13224 7.240552,-0.14143 z m 13.178476,-0.45143 c -0.384591,-0.15129 -1.108645,-0.15679 -1.609005,-0.0129 -0.500379,0.14459 -0.18571,0.26839 0.699241,0.27511 0.88496,0.007 1.294356,-0.11163 0.909764,-0.2629 z M 9.1413539,286.54088 c -0.4180773,-0.9895 -0.4237793,-1.05241 -0.4824322,-5.32514 -0.027698,-2.01452 -0.1860446,-3.53748 -0.3519746,-3.38439 -0.1659206,0.15311 -0.2421283,2.3454 -0.1693399,4.87176 0.102645,3.56285 0.2659103,4.59339 0.7276741,4.59339 0.3783833,0 0.4789939,-0.27537 0.2760726,-0.75562 z m 54.7762891,0.14925 c -0.24676,-0.60003 -15.020546,-0.29456 -15.428833,0.31901 -0.105167,0.15806 3.379403,0.28736 7.743499,0.28736 5.20368,0 7.848877,-0.20869 7.685334,-0.60637 z m 4.224422,-0.0129 c 0,-0.34687 -0.707225,-0.54624 -1.608413,-0.45338 -2.090845,0.21543 -2.091313,1.07249 -6.78e-4,1.07249 0.884951,0 1.609005,-0.2786 1.609005,-0.61911 z m 8.648441,-0.2776 c 0.22124,-0.11921 -1.226868,-0.23416 -3.21802,-0.25534 -1.991152,-0.0212 -3.398916,0.17291 -3.128374,0.43121 0.460446,0.43963 5.461768,0.30104 6.346394,-0.17587 z m 116.049964,0.29769 c 2.49357,-0.63183 -89.10042,-1.12358 -100.563223,-0.53989 l -2.614642,0.13315 2.413517,0.38555 c 3.454484,0.55182 98.591208,0.57184 100.764348,0.0212 z M 78.893958,286.32665 c -0.133676,-0.20085 -0.480617,-0.22235 -0.770988,-0.0476 -0.320895,0.19297 -0.225576,0.33623 0.243036,0.36524 0.424037,0.0262 0.661619,-0.11664 0.527952,-0.31752 z m 10.069387,-0.0501 c -0.384592,-0.15132 -1.108646,-0.15681 -1.609005,-0.0129 -0.500369,0.1446 -0.185711,0.2684 0.69925,0.2751 0.88496,0.007 1.294346,-0.11163 0.909755,-0.2629 z m 108.000215,0.0151 c -0.27655,-0.16771 -0.72909,-0.16771 -1.00563,0 -0.27655,0.16769 -0.0502,0.30491 0.50282,0.30491 0.5531,0 0.77936,-0.13722 0.50281,-0.30491 z m 1.80176,0.0351 c -0.13366,-0.20087 -0.48061,-0.22234 -0.77098,-0.0476 -0.32089,0.19298 -0.22558,0.33623 0.24302,0.36523 0.42404,0.0262 0.66162,-0.11664 0.52796,-0.3175 z m 0.60811,-2.79862 c 1.10284,-0.57777 1.10984,-0.61648 1.10984,-6.12577 V 10.827966 l -3.01689,0.228954 c -2.2958,0.174221 -3.0169,-1.1648992 -3.0169,-0.562538 0,0.716563 -135.975763,0.68019 -136.351195,0.443803 -0.26549,0.398972 -46.668504,0.4705 -47.487572,0.4705 -1.3087107,0 0.266579,261.005795 -0.121498,262.678795 -0.242883,1.04706 -0.441602,3.75257 -0.441602,6.01225 v 4.10852 l 183.895407,-0.0494 c 2.37631,-0.0272 4.81999,-0.31101 5.43041,-0.6308 z m 2.80726,-6.53484 c 0.0988,-1.01206 0.19852,-11.85806 0.0142,-12.02929 -0.88885,-2.11671 -0.33501,9.5036 -0.50481,11.71798 -0.24909,3.24829 0.3006,4.79738 0.49065,0.31131 z M 8.6936111,270.52097 c 0.063896,-1.74573 -0.01958,-3.17387 -0.1855288,-3.17367 -0.1659301,2e-4 -0.2770373,1.97259 -0.2469133,4.38307 0.057688,4.61532 0.2377156,4.11185 0.4324421,-1.2094 z m 0.3495296,-7.25377 c 0.017669,-0.58184 0.063037,-3.04007 0.1005628,-5.46273 0.029608,-5.23929 -0.3386796,-8.00812 -0.3339232,-11.74942 0,-1.88999 -0.1523676,-3.20635 -0.3386032,-2.92525 -0.1862356,0.28112 -0.3013924,2.51277 -0.2559104,4.95923 0.045463,2.44648 0.089684,7.10042 0.098108,10.34209 0.0086,3.2417 0.1688718,5.89397 0.3564636,5.89397 0.1875919,0 0.355585,-0.47604 0.3733213,-1.05789 z M 9.2615155,171.48191 C 9.1629488,133.60716 9.0864737,102.07467 9.0915548,101.40971 9.0963304,100.74474 9.1558333,94.488053 9.223063,87.505981 9.3360804,75.77087 9.1056331,65.701982 8.7367244,66.256395 8.6256173,66.423367 8.4874329,236.56705 8.5947961,241.02127 c 0.00764,0.33216 0.1892441,0.31068 0.4298824,-0.051 0.2837803,-0.42648 0.3590711,-22.51559 0.236837,-69.48841 z M 201.86539,228.05074 c -0.76672,-1.3092 -0.015,21.57546 0.56623,16.3652 0.11019,-0.40927 -0.0139,-7.59733 -0.11588,-8.18551 -0.0373,-2.94713 -0.08,-7.48336 -0.45035,-8.17969 z M 201.64643,190.028 c -0.10199,-0.58817 -0.2721,-0.14817 -0.2803,0.84927 -0.009,0.99744 -0.19464,9.2895 0.27539,9.04548 0.59996,-0.33418 0.18681,-8.78085 0.0849,-9.36902 z m 0.53427,-15.59358 c -0.19938,-2.56175 -0.73107,-0.49854 -0.73107,4.65491 0,5.15345 0.605,8.17041 0.68039,5.59368 0.0282,-2.53186 0.19534,-5.92775 0.16376,-6.87099 z m -0.22212,-10.55879 c -0.0892,-1.08056 -0.54176,-0.24667 -0.54176,1.91445 0,2.16112 0.52319,3.81768 0.61244,2.73712 0.0972,-0.91097 0.17488,-2.46387 -0.0707,-4.65157 z m -0.052,-15.49696 c -0.0766,-2.42505 -0.45954,-0.24024 -0.46017,4.41448 -8.5e-4,4.65473 0.54175,7.05944 0.61896,4.82974 0.0677,-1.986 0.16445,-4.18283 0.0808,-7.14131 z m 0.0981,-24.62524 c 0.0142,-10.72132 -0.11838,-19.83009 -0.24572,-20.02141 -0.23481,-0.35288 -0.53244,2.66068 -0.5665,17.32435 -0.0322,13.85616 0.0858,22.58247 0.30088,22.2592 0.11316,-0.17005 0.49718,-8.84083 0.51134,-19.56214 z m 0.0875,-23.955683 c 0,-2.98315 -0.35877,-3.96856 -0.68109,-0.82962 -0.12894,1.255743 0.0953,3.348423 0.30413,3.348423 0.20732,0 0.37696,-1.13346 0.37696,-2.518803 z m -0.11838,-7.304489 c -0.0959,-0.748074 -0.57414,0.104306 -0.57414,1.600475 0,1.496174 0.47828,1.867904 0.57414,1.119811 0.0959,-0.748074 0.0959,-1.972201 0,-2.720286 z m 0.16006,-18.767828 c -0.32375,-0.486528 -0.44063,-0.184347 -0.43171,1.116149 0.0108,1.563339 0.0654,1.645631 0.44394,0.667155 0.30939,-0.799919 0.30593,-1.305164 -0.0122,-1.783304 z m 0.30706,-9.492936 c -0.006,-1.994882 -0.17792,-3.627052 -0.38127,-3.627052 -0.41167,0 -0.50742,4.802476 -0.12557,6.297911 0.41592,1.628826 0.51879,1.086696 0.50684,-2.670859 z M 9.0863304,59.012756 c -0.045463,-5.871913 -0.062464,-6.059671 -0.4563101,-5.04976 -0.3289471,0.843529 -0.5563381,5.466229 -0.4456798,9.060426 0.095128,3.08898 0.9282935,-0.615842 0.9019899,-4.010666 z M 202.32898,57.737027 c -0.43943,-0.660371 -0.74074,0.389827 -0.42525,1.482138 0.29914,1.035751 0.32082,1.034813 0.4875,-0.02116 0.0959,-0.60786 0.068,-1.265264 -0.0622,-1.460898 z m 0.13941,-10.733114 c 0.0149,-4.488477 -0.13299,-8.160879 -0.3286,-8.160879 -0.42277,0 -0.5963,11.208268 -0.22019,14.22115 0.14422,1.155334 0.32061,2.100618 0.39197,2.100618 0.0713,0 0.14193,-3.672402 0.15682,-8.160889 z M 9.1158049,51.604658 C 9.2251165,50.976505 9.1584979,50.09241 8.9677544,49.639994 8.7319776,49.080749 8.6189984,49.44636 8.614815,50.782109 c -0.00669,2.199434 0.2017752,2.542056 0.5009899,0.822549 z M 9.1633689,29.244672 C 9.1150408,10.60673 9.121249,10.459901 9.9678716,10.053429 10.437123,9.8281358 13.355241,9.7188298 16.452583,9.8105118 c 3.097343,0.09172 14.320207,0.156656 24.939685,0.144388 10.619469,-0.01284 23.380947,0.01451 28.358821,0.05973 17.532057,0.158816 98.918821,-0.1130444 112.429691,-0.3755254 7.52212,-0.146136 14.89844,-0.132044 16.3918,0.03135 l 2.71521,0.297037 0.0318,3.1032564 c 0.0375,3.663173 0.23853,3.141104 0.47832,-1.24214 l 0.17156,-3.1363874 -96.22609,0.0298 C 52.819038,8.7384658 9.2973032,8.9561498 9.028413,9.2058888 8.491559,9.7045178 8.0233865,40.288848 8.4708141,45.632353 9.0029308,51.987199 9.2096438,47.096024 9.1633882,29.244769 Z M 202.49455,34.647143 c 0,-1.642781 -0.18101,-3.155 -0.40225,-3.36048 -0.24975,-0.231958 -0.40226,0.900484 -0.40226,2.986877 0,1.848271 0.18102,3.36048 0.40226,3.36048 0.22124,0 0.40225,-1.344097 0.40225,-2.986877 z M 202.0923,19.232141 c 0,-0.146621 -0.18102,-0.434713 -0.40226,-0.640194 -0.22124,-0.20548 -0.40225,-0.08552 -0.40225,0.266582 0,0.352101 0.18101,0.640193 0.40225,0.640193 0.22124,0 0.40226,-0.119989 0.40226,-0.266581 z"
       id="path1687"
       inkscape:connector-curvature="0"
       sodipodi:nodetypes="ccscscccccccsssccccccccccccccccccscccscccsscccccccccccccccccccccccccscccsccscsssccccccccccccccccccscccccccccccccccccccccccccccccccscscscscscccccccccccccccccccccccccccscccssssssssccccsccccssssssssssssss" />
  </g>
  <g
     inkscape:groupmode="layer"
     id="layer4"
     inkscape:label="text">
    <path
       style="fill:#000000;stroke-width:0.26458335"
       d="m -400.42481,206.66264 c -0.36937,-0.30226 -0.44552,-1.60909 -0.59066,-10.13592 -0.18635,-10.94796 -0.35376,-16.69138 -0.55522,-19.04934 -0.38799,-4.54096 -0.58922,-10.19104 -0.81511,-22.88646 -0.066,-3.71078 -0.18643,-8.1742 -0.26758,-9.9187 -0.32508,-6.98887 -0.47524,-29.54372 -0.32942,-49.480261 0.0394,-5.38427 -0.0279,-17.230994 -0.14961,-26.326044 -0.36492,-27.27942 -0.36991,-28.32266 -0.13614,-28.46714 0.12378,-0.0765 0.23328,0.55254 0.24333,1.39788 0.0197,1.66067 0.14399,5.1637 0.36892,10.40051 0.26297,6.12253 0.50319,32.228534 0.53561,58.208335 0.0355,28.46609 0.36335,51.35501 0.80058,55.8972 0.0668,0.69341 0.18688,3.07466 0.26696,5.29167 0.0801,2.21701 0.19506,5.40014 0.25552,7.07363 0.0605,1.67349 0.18291,7.56709 0.27213,13.09688 0.21368,13.24557 0.24511,13.89441 0.68784,14.20396 0.38737,0.27084 18.49031,0.0539 19.94521,-0.23901 0.43656,-0.0879 4.90141,-0.177 9.92187,-0.19801 5.02047,-0.021 15.5575,-0.13754 23.41563,-0.25894 7.85812,-0.12141 17.08546,-0.25636 20.5052,-0.29989 3.41974,-0.0435 7.76553,-0.15599 9.65731,-0.24989 7.00226,-0.34759 19.80214,-0.33105 24.60625,0.0318 8.78304,0.66336 9.525,0.74898 9.525,1.09905 0,0.1819 -0.0595,0.35228 -0.1323,0.37862 -0.22882,0.0828 -10.3559,-0.60737 -12.45233,-0.84868 -1.10071,-0.12669 -3.30337,-0.18434 -4.89479,-0.12811 -1.59143,0.0562 -8.31085,0.17257 -14.93204,0.25852 -14.81245,0.19228 -27.45916,0.38502 -34.79272,0.53026 -3.05593,0.0605 -10.6164,0.19264 -16.80104,0.29358 -6.18463,0.10095 -12.31635,0.20748 -13.62604,0.23674 -19.04791,0.42557 -20.11402,0.43012 -20.53236,0.0878 z"
       id="path4836"
       inkscape:connector-curvature="0" />
    <path
       style="fill:#000000;stroke-width:0.26458335"
       d="m -284.11253,204.33495 c -0.092,-0.28974 -0.0904,-0.6511 0.004,-0.80303 0.14437,-0.23358 0.56793,-70.06466 0.47259,-77.91288 -0.0177,-1.4552 -0.0456,-3.5388 -0.062,-4.6302 -0.0164,-1.09141 0.0338,-7.1636 0.11154,-13.49376 0.0778,-6.33015 0.2014,-25.201561 0.27476,-41.936455 0.26568,-60.5989398 0.30912,-65.06073184 0.63444,-65.16917184 0.23158,-0.07719 0.23121,-0.192501 -0.002,-0.47289 -0.45093,-0.543339 -0.48072,-2.47772596 -0.0449,-2.91357696 0.31481,-0.31471 0.3084,-0.368324 -0.044,-0.368324 -0.35221,0 -0.38829,-0.299283 -0.24725,-2.050521 0.15869,-1.970431 0.45729,-2.844917 0.88181,-2.582546 0.11,0.06798 0.15404,1.763313 0.0979,3.767399 -0.18717,6.677285 -0.6303,114.6421258 -0.57205,139.3750458 0.0185,7.85813 0.0228,15.83532 0.01,17.72709 -0.0132,1.89177 -0.0907,14.20135 -0.17209,27.35462 -0.10648,17.20117 -0.23202,24.01623 -0.44721,24.27552 -0.41702,0.50246 -0.69949,0.44998 -0.89509,-0.16632 z"
       id="path4834"
       inkscape:connector-curvature="0" />
    <path
       style="fill:#000000;stroke-width:0.26458335"
       d="m -395.53753,201.63067 c -0.16389,-0.26518 -0.81484,-0.22381 5.72321,-0.36378 3.12869,-0.067 8.72463,-0.25108 12.43541,-0.40912 3.71078,-0.15803 10.67594,-0.32948 15.47813,-0.38101 4.80218,-0.0515 10.39812,-0.16695 12.43541,-0.25651 2.03729,-0.0896 12.15761,-0.20662 22.48958,-0.26012 15.82234,-0.0819 23.19567,-0.21719 24.15834,-0.44314 0.62701,-0.14717 13.80938,0.42291 13.80938,0.59719 0,0.21709 -7.66011,0.29155 -37.43855,0.36394 -9.02229,0.0219 -19.85698,0.12488 -24.07708,0.22877 -4.2201,0.10389 -10.70901,0.2567 -14.41979,0.33958 -3.71078,0.0829 -7.10406,0.19072 -7.54063,0.23964 -2.8753,0.32221 -22.88241,0.62124 -23.05341,0.34456 z"
       id="path4832"
       inkscape:connector-curvature="0" />
    <path
       style="fill:#000000;stroke-width:0.26458335"
       d="m -396.44647,193.70556 c -0.008,-3.39571 -0.0193,-6.35261 -0.0243,-6.57089 -0.005,-0.21828 0.008,-5.21891 0.0292,-11.1125 0.0211,-5.89359 0.0379,-15.71625 0.0374,-21.82813 -0.002,-18.48194 0.20703,-58.152201 0.4069,-77.390625 0.10356,-9.96818 0.18539,-18.42162 0.18185,-18.78542 -0.0509,-5.22371 -0.37743,-34.33392 -0.38733,-34.52812 -0.0321,-0.631 0.31177,-10.843973 0.45439,-13.4937548 0.0862,-1.600729 0.16023,-4.515347 0.16462,-6.476928 0.009,-3.91698604 0.18743,-4.767864 1.00124,-4.767864 0.50993,0 0.52992,0.121361 0.40321,2.447396 -0.43956,8.068691 -0.73174,25.1350308 -0.80289,46.8974008 -0.0447,13.67895 -0.14377,29.93099 -0.2201,36.115624 -0.17262,13.98632 -0.38777,47.093791 -0.55795,85.855741 -0.0871,19.83564 -0.21951,29.66158 -0.40057,29.72193 -0.1788,0.0596 -0.2756,-2.00234 -0.28561,-6.08386 z"
       id="path4830"
       inkscape:connector-curvature="0" />
    <path
       style="fill:#000000;stroke-width:0.26458335"
       d="m -289.91511,188.12686 c 0.0359,-6.00274 0.19016,-14.7836 0.34283,-19.51302 0.15268,-4.72943 0.27331,-16.39756 0.26807,-25.92917 -0.005,-9.53162 0.0681,-30.30802 0.16296,-46.169791 0.30371,-50.783344 0.3335,-79.515785 0.0826,-79.670839 -0.13777,-0.08515 -0.14144,-0.278789 -0.009,-0.45533 0.12849,-0.170783 0.14569,-2.363058 0.0387,-4.937381 -0.36588,-8.8071898 -0.3745,-11.99509284 -0.0327,-12.10901384 0.17476,-0.05825 0.33294,-0.0067 0.35151,0.114569 0.15832,1.03376 0.22031,2.26860504 0.36301,7.23194504 0.15196,5.2851948 0.46029,28.3439858 0.40685,30.4270858 -0.0131,0.50932 -0.0598,6.87916 -0.10394,14.15521 -0.0441,7.27604 -0.12205,18.28932 -0.1732,24.47395 -0.0512,6.184644 -0.0703,19.737464 -0.0425,30.117385 0.0278,10.37992 -0.01,18.97015 -0.0835,19.0894 -0.0737,0.11924 -0.15735,8.83111 -0.18588,19.35971 -0.0285,10.52859 -0.15005,20.6907 -0.27003,22.58247 -0.11997,1.89178 -0.26724,9.80943 -0.32726,17.5948 -0.06,7.78536 -0.11752,14.2445 -0.12777,14.35364 -0.0103,0.10914 -0.17788,0.19844 -0.3725,0.19844 -0.29075,0 -0.34222,-1.94629 -0.28861,-10.91406 z"
       id="path4828"
       inkscape:connector-curvature="0" />
    <path
       style="fill:#000000;stroke-width:0.26458335"
       d="m -403.54162,16.412266 c -0.0287,-20.9649418 0.0141,-23.7463538 0.36512,-23.7463538 0.21868,0 0.40072,0.148828 0.40455,0.330729 0.004,0.181901 0.0638,2.29526 0.13334,4.696354 0.14602,5.043723 0.13435,9.030079 -0.0272,9.291448 -0.0617,0.09985 -0.179,7.1881618 -0.26065,15.7518118 -0.0816,8.56366 -0.24616,15.987 -0.36558,16.49632 -0.11942,0.50933 -0.23174,-9.75981 -0.2496,-22.820309 z"
       id="path3642"
       inkscape:connector-curvature="0" />
    <path
       style="fill:#000000;stroke-width:0.26458335"
       d="m -301.54833,-2.0526278 c -0.42146,-0.126118 -3.87427,-0.23638 -7.67291,-0.245027 -3.79865,-0.0086 -6.93697,-0.103584 -6.97407,-0.210972 -0.0371,-0.107389 -2.38848,-0.195253 -5.22531,-0.195253 -2.83683,0 -5.15796,-0.09632 -5.15808,-0.214052 -1.1e-4,-0.117729 -0.11157,-0.145226 -0.24768,-0.06111 -0.13611,0.08412 -15.40588,0.202882 -33.93281,0.263913 -18.52694,0.06103 -33.95323,0.191713 -34.28065,0.290402 -0.48841,0.147213 -0.59531,0.07728 -0.59531,-0.389438 0,-0.567495 0.0152,-0.568756 6.28385,-0.520589 5.26616,0.04046 22.56525,0.05114 31.41927,0.01939 1.30969,-0.0047 3.63141,-0.0095 5.15937,-0.01074 1.52797,-0.0012 3.13532,-0.02577 3.57188,-0.05457 0.43656,-0.0288 1.83555,-0.05338 3.10885,-0.05461 1.52067,-0.0015 2.3165,-0.103345 2.31916,-0.296877 0.003,-0.204016 0.0638,-0.20826 0.19844,-0.0138 0.25472,0.368005 -0.72101,0.337288 15.06093,0.474138 7.59452,0.06586 13.91536,0.185952 14.04631,0.266882 0.13095,0.08093 5.62222,0.14936 12.20283,0.152065 6.5806,0.0027 12.07672,0.07413 12.21358,0.158717 0.89591,0.553703 -0.13574,0.67665 -5.04311,0.60101 -2.91059,-0.04486 -5.29184,0.0077 -5.29167,0.11687 2.6e-4,0.236045 -0.15243,0.226013 -1.16287,-0.07635 z"
       id="path3572"
       inkscape:connector-curvature="0" />
    <path
       style="fill:#000000;stroke-width:0.26458335"
       d="m -287.19916,-7.2008728 c -0.23214,-0.232143 -16.10893,-0.44774 -41.49642,-0.563496 -30.3832,-0.138534 -27.97822,-0.114584 -27.58116,-0.274664 0.18281,-0.0737 0.25956,-0.251826 0.17056,-0.395834 -0.1061,-0.171672 2.37605,-0.21075 7.20824,-0.113485 4.05354,0.08159 13.26366,0.120289 20.46694,0.08599 30.84169,-0.146839 44.18543,0.167034 44.18543,1.039335 0,0.250779 -0.4101,0.353518 -1.41111,0.353518 -0.77611,0 -1.47023,-0.05912 -1.54248,-0.131368 z"
       id="path3570"
       inkscape:connector-curvature="0" />
    <path
       style="fill:#000000;stroke-width:0.26458335"
       d="m -384.55106,-7.4506878 c -0.0673,-0.06733 -3.92825,-0.140332 -8.57982,-0.162225 -7.84225,-0.03691 -9.62033,-0.182159 -9.26515,-0.756856 0.0732,-0.11846 10.46475,-0.214692 23.0923,-0.213851 12.62756,8.42e-4 22.74938,0.05322 22.49294,0.116389 -0.25645,0.06317 -0.39371,0.232248 -0.30504,0.375726 0.10428,0.168723 -1.83382,0.248722 -5.48686,0.226484 -6.58433,-0.04008 -20.80413,0.234749 -21.40994,0.413799 -0.22881,0.06762 -0.4711,0.06787 -0.53843,5.29e-4 z"
       id="path3566"
       inkscape:connector-curvature="0" />
    <path
       inkscape:connector-curvature="0"
       style="fill:#000000;stroke-width:0.40125179"
       d="m 27.63094,68.62085 c 0,-0.528106 -3.231328,-0.489434 61.792762,-0.739497 24.606788,-0.09463 54.428058,-0.28241 66.269468,-0.417276 14.92523,-0.169989 21.61017,-0.115256 21.7916,0.178255 0.15452,0.250048 -0.11771,0.425421 -0.66477,0.428211 -15.67352,0.08038 -43.52579,0.456326 -44.86502,0.60563 -0.99231,0.110708 -9.38788,0.198774 -18.65678,0.195877 -21.843659,-0.0061 -47.916904,0.04564 -68.91499,0.138763 -12.456817,0.0552 -16.75227,-0.04475 -16.75227,-0.389902 z"
       id="path4148" />
    <path
       inkscape:connector-curvature="0"
       style="fill:#000000;stroke-width:0.40191561"
       d="m 92.929206,135.49257 c -0.005,-0.34151 -4.62044,-0.47563 -17.58996,-0.51108 -9.67108,-0.0264 -20.74888,-0.11029 -24.61731,-0.18627 -3.86844,-0.076 -10.42468,-0.16251 -14.56944,-0.19227 -6.50183,-0.0466 -7.53592,-0.13929 -7.53592,-0.67447 0,-0.53875 0.62138,-0.58625 4.72251,-0.36099 13.05735,0.71724 96.601014,0.3768 133.868214,-0.5455 10.67377,-0.26415 12.85979,-0.13657 12.33047,0.71997 -0.11879,0.19217 -5.68409,0.37102 -12.36737,0.39744 -6.68326,0.0264 -13.23657,0.12563 -14.56288,0.22058 -3.66879,0.26251 -21.84947,0.54929 -35.56954,0.56106 -21.711014,0.0187 -23.483104,0.0606 -23.803274,0.56397 -0.22166,0.34845 -0.30093,0.35041 -0.3055,0.008 z"
       id="path4446" />
    <g
       id="g6629"
       transform="translate(1.5875,65.352072)">
      <text
         xml:space="preserve"
         style="font-style:normal;font-variant:normal;font-weight:500;font-stretch:normal;font-size:4.23333311px;line-height:1.25;font-family:BoereTudor;-inkscape-font-specification:'BoereTudor, Medium';font-variant-ligatures:normal;font-variant-caps:normal;font-variant-numeric:normal;font-feature-settings:normal;text-align:start;letter-spacing:0px;word-spacing:0px;writing-mode:lr-tb;text-anchor:start;fill:#000000;fill-opacity:1;stroke:none;stroke-width:0.26458332"
         x="39.836578"
         y="126.03323"
         id="text4811"><tspan
           y="126.03323"
           x="39.836578"
           id="tspan1929"
           sodipodi:role="line"
           style="stroke-width:0.26458332">Players - Wf -W -C</tspan><tspan
           y="131.32489"
           x="39.836578"
           id="tspan1931"
           sodipodi:role="line"
           style="stroke-width:0.26458332">8  - 4 - 2 - 2</tspan><tspan
           y="136.61656"
           x="39.836578"
           id="tspan1933"
           sodipodi:role="line"
           style="stroke-width:0.26458332">9  - 5 - 2 - 2</tspan><tspan
           y="141.90822"
           x="39.836578"
           id="tspan1935"
           sodipodi:role="line"
           style="stroke-width:0.26458332">10 - 6 - 2 - 3</tspan><tspan
           y="147.19989"
           x="39.836578"
           id="tspan1937"
           sodipodi:role="line"
           style="stroke-width:0.26458332">11 - 6 - 3 - 2</tspan><tspan
           y="152.49156"
           x="39.836578"
           id="tspan1939"
           sodipodi:role="line"
           style="stroke-width:0.26458332">12 - 7 - 3 - 2</tspan><tspan
           y="157.78322"
           x="39.836578"
           id="tspan1941"
           sodipodi:role="line"
           style="stroke-width:0.26458332">13 - 7 - 3 - 3</tspan><tspan
           y="163.07489"
           x="39.836578"
           id="tspan1943"
           sodipodi:role="line"
           style="stroke-width:0.26458332">14 - 8 - 3 - 3</tspan><tspan
           y="168.36656"
           x="39.836578"
           id="tspan1945"
           sodipodi:role="line"
           style="stroke-width:0.26458332">15 - 8 - 4 - 3</tspan><tspan
           y="173.65822"
           x="39.836578"
           id="tspan1947"
           sodipodi:role="line"
           style="stroke-width:0.26458332">16 - 9 - 4 - 3</tspan><tspan
           y="178.94989"
           x="39.836578"
           id="tspan1949"
           sodipodi:role="line"
           style="stroke-width:0.26458332">17 - 9 - 4 - 4</tspan><tspan
           y="184.24156"
           x="39.836578"
           id="tspan1951"
           sodipodi:role="line"
           style="stroke-width:0.26458332">18 - 10 - 4 - 4</tspan><tspan
           y="189.53322"
           x="39.836578"
           id="tspan1953"
           sodipodi:role="line"
           style="stroke-width:0.26458332">19 - 10 - 5 - 4</tspan><tspan
           y="194.82489"
           x="39.836578"
           id="tspan1955"
           sodipodi:role="line"
           style="stroke-width:0.26458332">20 - 11 - 5 - 4</tspan><tspan
           y="200.11656"
           x="39.836578"
           id="tspan1957"
           sodipodi:role="line"
           style="stroke-width:0.26458332">21 - 11 - 5 - 5</tspan><tspan
           y="205.40822"
           x="39.836578"
           id="tspan1959"
           sodipodi:role="line"
           style="stroke-width:0.26458332">22 - 12 - 5 - 5 </tspan></text>
      <flowRoot
         xml:space="preserve"
         id="flowRoot937"
         style="font-style:normal;font-variant:normal;font-weight:normal;font-stretch:normal;font-size:16px;line-height:1.25;font-family:BoereTudor;-inkscape-font-specification:BoereTudor;letter-spacing:0px;word-spacing:0px;fill:#000000;fill-opacity:1;stroke:none"
         transform="matrix(0.26407833,0,0,0.26458333,32.018051,87.475041)"><flowRegion
           id="flowRegion939"><rect
             id="rect941"
             width="307.63184"
             height="435.61795"
             x="264.56693"
             y="0" /></flowRegion><flowPara
           style="font-style:normal;font-variant:normal;font-weight:normal;font-stretch:normal;font-family:'Abyssinica SIL';-inkscape-font-specification:'Abyssinica SIL'"
           id="flowPara945">Deal one card to each player.</flowPara><flowPara
           style="font-style:normal;font-variant:normal;font-weight:normal;font-stretch:normal;font-family:'Abyssinica SIL';-inkscape-font-specification:'Abyssinica SIL'"
           id="flowPara1200" /><flowPara
           style="font-style:normal;font-variant:normal;font-weight:normal;font-stretch:normal;font-family:'Abyssinica SIL';-inkscape-font-specification:'Abyssinica SIL'"
           id="flowPara947">Every player must then close their eyes</flowPara><flowPara
           style="font-style:normal;font-variant:normal;font-weight:normal;font-stretch:normal;font-family:'Abyssinica SIL';-inkscape-font-specification:'Abyssinica SIL'"
           id="flowPara1202" /><flowPara
           style="font-style:normal;font-variant:normal;font-weight:normal;font-stretch:normal;font-family:'Abyssinica SIL';-inkscape-font-specification:'Abyssinica SIL'"
           id="flowPara949">The witches will then open their </flowPara><flowPara
           style="font-style:normal;font-variant:normal;font-weight:normal;font-stretch:normal;font-family:'Abyssinica SIL';-inkscape-font-specification:'Abyssinica SIL'"
           id="flowPara1218">eyes and identify each other.</flowPara><flowPara
           style="font-style:normal;font-variant:normal;font-weight:normal;font-stretch:normal;font-family:'Abyssinica SIL';-inkscape-font-specification:'Abyssinica SIL'"
           id="flowPara1210" /><flowPara
           style="font-style:normal;font-variant:normal;font-weight:normal;font-stretch:normal;font-family:'Abyssinica SIL';-inkscape-font-specification:'Abyssinica SIL'"
           id="flowPara951">After 30 seconds the witches will close their eyes</flowPara><flowPara
           style="font-style:normal;font-variant:normal;font-weight:normal;font-stretch:normal;font-family:'Abyssinica SIL';-inkscape-font-specification:'Abyssinica SIL'"
           id="flowPara1212" /><flowPara
           style="font-style:normal;font-variant:normal;font-weight:normal;font-stretch:normal;font-family:'Abyssinica SIL';-inkscape-font-specification:'Abyssinica SIL'"
           id="flowPara953">The cultists will then open their </flowPara><flowPara
           style="font-style:normal;font-variant:normal;font-weight:normal;font-stretch:normal;font-family:'Abyssinica SIL';-inkscape-font-specification:'Abyssinica SIL'"
           id="flowPara1220">eyes and identify each other.</flowPara><flowPara
           style="font-style:normal;font-variant:normal;font-weight:normal;font-stretch:normal;font-family:'Abyssinica SIL';-inkscape-font-specification:'Abyssinica SIL'"
           id="flowPara1214" /><flowPara
           style="font-style:normal;font-variant:normal;font-weight:normal;font-stretch:normal;font-family:'Abyssinica SIL';-inkscape-font-specification:'Abyssinica SIL'"
           id="flowPara955">After 30 seconds the cultists will then close their eyes</flowPara><flowPara
           style="font-style:normal;font-variant:normal;font-weight:normal;font-stretch:normal;font-family:'Abyssinica SIL';-inkscape-font-specification:'Abyssinica SIL'"
           id="flowPara1216" /><flowPara
           style="font-style:normal;font-variant:normal;font-weight:normal;font-stretch:normal;font-family:'Abyssinica SIL';-inkscape-font-specification:'Abyssinica SIL'"
           id="flowPara957">Everyone opens their eyes</flowPara></flowRoot>      <text
         xml:space="preserve"
         style="font-style:normal;font-variant:normal;font-weight:normal;font-stretch:normal;font-size:8.80587482px;line-height:1.25;font-family:BoereTudor;-inkscape-font-specification:BoereTudor;letter-spacing:0px;word-spacing:0px;fill:#000000;fill-opacity:1;stroke:none;stroke-width:0.55036718"
         x="86.357018"
         y="81.526894"
         id="text1194"><tspan
           sodipodi:role="line"
           id="tspan1192"
           x="86.357018"
           y="81.526894"
           style="stroke-width:0.55036718">Setup</tspan></text>
      <flowRoot
         transform="matrix(0.26458333,0,0,0.26458333,94.479777,-7.6706354)"
         style="font-style:normal;font-variant:normal;font-weight:normal;font-stretch:normal;font-size:16px;line-height:1.25;font-family:'Abyssinica SIL';-inkscape-font-specification:'Abyssinica SIL';letter-spacing:0px;word-spacing:0px;fill:#000000;fill-opacity:1;stroke:none"
         id="flowRoot5304"
         xml:space="preserve"><flowRegion
           id="flowRegion5306"><rect
             y="357.43011"
             x="-252.43712"
             height="121.62238"
             width="275.77167"
             id="rect5308" /></flowRegion><flowPara
           id="flowPara5310">Remove the ghost cards and witchfinder general card from the deck.</flowPara><flowPara
           id="flowPara5312" /><flowPara
           id="flowPara5314">Take the number of cards indicated by player count:</flowPara></flowRoot>    </g>
    <g
       id="g6584"
       transform="translate(-2.3812541,-132.29167)">
      <g
         id="g529"
         transform="translate(90.62645,72.230565)">
        <g
           id="g1641"
           transform="translate(13.687012,-27.476111)">
          <rect
             y="194.48184"
             x="35.6077"
             height="16.952957"
             width="27.902113"
             id="rect1578"
             style="opacity:1;fill:none;fill-opacity:1;fill-rule:nonzero;stroke:#000000;stroke-width:0.33324859;stroke-linecap:butt;stroke-linejoin:round;stroke-miterlimit:4;stroke-dasharray:none;stroke-dashoffset:0;stroke-opacity:1;paint-order:stroke markers fill" />
          <flowRoot
             transform="matrix(0.26458333,0,0,0.26458333,0.86428296,1.3503785)"
             style="font-style:normal;font-variant:normal;font-weight:normal;font-stretch:normal;font-size:16px;line-height:1.25;font-family:BoereTudor;-inkscape-font-specification:BoereTudor;letter-spacing:0px;word-spacing:0px;fill:#000000;fill-opacity:1;stroke:none"
             id="flowRoot1580"
             xml:space="preserve"><flowRegion
               id="flowRegion1582"><rect
                 y="735.12701"
                 x="134.65781"
                 height="73.919128"
                 width="115.30174"
                 id="rect1584" /></flowRegion><flowPara
               id="flowPara1586">CHallenge the Witchfinder General?</flowPara></flowRoot>        </g>
        <g
           id="g1634"
           transform="translate(-76.362387,10.233466)">
          <ellipse
             ry="5.6007118"
             rx="7.9819613"
             cy="138.39999"
             cx="35.189583"
             id="path1566"
             style="opacity:1;fill:none;fill-opacity:1;fill-rule:nonzero;stroke:#000000;stroke-width:0.21107672;stroke-linecap:butt;stroke-linejoin:round;stroke-miterlimit:4;stroke-dasharray:none;stroke-dashoffset:0;stroke-opacity:1;paint-order:stroke markers fill" />
          <text
             id="text1602"
             y="139.36519"
             x="29.753994"
             style="font-style:normal;font-variant:normal;font-weight:normal;font-stretch:normal;font-size:4.23333311px;line-height:1.25;font-family:BoereTudor;-inkscape-font-specification:BoereTudor;letter-spacing:0px;word-spacing:0px;fill:#000000;fill-opacity:1;stroke:none;stroke-width:0.26458332"
             xml:space="preserve"><tspan
               style="stroke-width:0.26458332"
               y="139.36519"
               x="29.753994"
               id="tspan1600"
               sodipodi:role="line">Setup</tspan></text>
        </g>
        <g
           id="g1629"
           transform="translate(-45.137382,-10.52008)">
          <ellipse
             ry="5.342608"
             rx="8.9144831"
             cy="159.83124"
             cx="33.469791"
             id="path1568"
             style="opacity:1;fill:none;fill-opacity:1;fill-rule:nonzero;stroke:#000000;stroke-width:0.19811678;stroke-linecap:butt;stroke-linejoin:round;stroke-miterlimit:4;stroke-dasharray:none;stroke-dashoffset:0;stroke-opacity:1;paint-order:stroke markers fill" />
          <text
             id="text1606"
             y="161.08218"
             x="27.287149"
             style="font-style:normal;font-variant:normal;font-weight:normal;font-stretch:normal;font-size:4.23333311px;line-height:1.25;font-family:BoereTudor;-inkscape-font-specification:BoereTudor;letter-spacing:0px;word-spacing:0px;fill:#000000;fill-opacity:1;stroke:none;stroke-width:0.26458332"
             xml:space="preserve"><tspan
               style="stroke-width:0.26458332"
               y="161.08218"
               x="27.287149"
               id="tspan1604"
               sodipodi:role="line">Voting</tspan></text>
        </g>
        <g
           id="g1619"
           transform="translate(4.1299151,-34.619861)">
          <ellipse
             ry="6.4954653"
             rx="14.962132"
             cy="183.77605"
             cx="19.976042"
             id="path1570"
             style="opacity:1;fill:none;fill-opacity:1;fill-rule:nonzero;stroke:#000000;stroke-width:0.27365133;stroke-linecap:butt;stroke-linejoin:round;stroke-miterlimit:4;stroke-dasharray:none;stroke-dashoffset:0;stroke-opacity:1;paint-order:stroke markers fill" />
          <text
             id="text1610"
             y="185.0397"
             x="7.2676148"
             style="font-style:normal;font-variant:normal;font-weight:normal;font-stretch:normal;font-size:4.23333311px;line-height:1.25;font-family:BoereTudor;-inkscape-font-specification:BoereTudor;letter-spacing:0px;word-spacing:0px;fill:#000000;fill-opacity:1;stroke:none;stroke-width:0.26458332"
             xml:space="preserve"><tspan
               style="stroke-width:0.26458332"
               y="185.0397"
               x="7.2676148"
               id="tspan1608"
               sodipodi:role="line">Interrogation</tspan></text>
        </g>
        <g
           id="g1624"
           transform="translate(44.533669,-70.967969)">
          <ellipse
             ry="5.7167864"
             rx="11.273036"
             cy="219.75937"
             cx="18.123959"
             id="path1572"
             style="opacity:1;fill:none;fill-opacity:1;fill-rule:nonzero;stroke:#000000;stroke-width:0.24351077;stroke-linecap:butt;stroke-linejoin:round;stroke-miterlimit:4;stroke-dasharray:none;stroke-dashoffset:0;stroke-opacity:1;paint-order:stroke markers fill" />
          <text
             id="text1614"
             y="221.41884"
             x="8.8487492"
             style="font-style:normal;font-variant:normal;font-weight:normal;font-stretch:normal;font-size:4.23333311px;line-height:1.25;font-family:BoereTudor;-inkscape-font-specification:BoereTudor;letter-spacing:0px;word-spacing:0px;fill:#000000;fill-opacity:1;stroke:none;stroke-width:0.26458332"
             xml:space="preserve"><tspan
               style="stroke-width:0.26458332"
               y="221.41884"
               x="8.8487492"
               id="tspan1612"
               sodipodi:role="line">Execution</tspan></text>
        </g>
        <path
           style="fill:none;stroke:#000000;stroke-width:0.26458332px;stroke-linecap:butt;stroke-linejoin:miter;stroke-opacity:1;marker-end:url(#marker1953)"
           d="m -33.097106,148.96149 11.78658,0.18709"
           id="path1913"
           inkscape:connector-curvature="0" />
        <path
           style="fill:none;stroke:#000000;stroke-width:0.26458332px;stroke-linecap:butt;stroke-linejoin:miter;stroke-opacity:1;marker-end:url(#marker2097)"
           d="m 48.99026,172.29982 c -0.02304,0.35713 -25.583012,3.60373 -25.069884,-16.08963"
           id="path1921"
           inkscape:connector-curvature="0"
           sodipodi:nodetypes="cc" />
        <path
           style="fill:none;stroke:#000000;stroke-width:0.27406442px;stroke-linecap:butt;stroke-linejoin:miter;stroke-opacity:1;marker-end:url(#marker2155)"
           d="m 49.061923,181.1988 c 0.301103,-0.0935 -62.939294,9.07379 -61.132667,-26.09887"
           id="path1923"
           inkscape:connector-curvature="0"
           sodipodi:nodetypes="cc" />
        <text
           xml:space="preserve"
           style="font-style:normal;font-variant:normal;font-weight:normal;font-stretch:normal;font-size:4.23333311px;line-height:1.25;font-family:BoereTudor;-inkscape-font-specification:BoereTudor;letter-spacing:0px;word-spacing:0px;fill:#000000;fill-opacity:1;stroke:none;stroke-width:0.26458332"
           x="42.689156"
           y="170.64148"
           id="text2213"><tspan
             sodipodi:role="line"
             id="tspan2211"
             x="42.689156"
             y="170.64148"
             style="stroke-width:0.26458332">No</tspan></text>
        <text
           xml:space="preserve"
           style="font-style:normal;font-variant:normal;font-weight:normal;font-stretch:normal;font-size:4.23333311px;line-height:1.25;font-family:BoereTudor;-inkscape-font-specification:BoereTudor;letter-spacing:0px;word-spacing:0px;fill:#000000;fill-opacity:1;stroke:none;stroke-width:0.26458332"
           x="40.373249"
           y="186.89273"
           id="text2217"><tspan
             sodipodi:role="line"
             id="tspan2215"
             x="40.373249"
             y="186.89273"
             style="stroke-width:0.26458332">Yes</tspan></text>
        <path
           style="fill:none;stroke:#000000;stroke-width:0.26458332px;stroke-linecap:butt;stroke-linejoin:miter;stroke-opacity:1;marker-end:url(#marker1953-5)"
           d="m -2.9806881,149.50717 11.78658,0.18709"
           id="path1913-5"
           inkscape:connector-curvature="0" />
        <path
           style="fill:none;stroke:#000000;stroke-width:0.26458332px;stroke-linecap:butt;stroke-linejoin:miter;stroke-opacity:1;marker-end:url(#marker1953-5-6)"
           d="m 39.088061,148.978 11.78658,0.18709"
           id="path1913-5-9"
           inkscape:connector-curvature="0" />
        <path
           style="fill:none;stroke:#000000;stroke-width:0.26458332px;stroke-linecap:butt;stroke-linejoin:miter;stroke-opacity:1;marker-end:url(#marker1953-5-1)"
           d="m 62.555609,154.59123 -0.18709,11.78658"
           id="path1913-5-0"
           inkscape:connector-curvature="0" />
      </g>
      <text
         inkscape:transform-center-y="-82.319006"
         inkscape:transform-center-x="8.9802561"
         xml:space="preserve"
         style="font-style:normal;font-variant:normal;font-weight:normal;font-stretch:normal;font-size:8.80587482px;line-height:1.25;font-family:BoereTudor;-inkscape-font-specification:BoereTudor;letter-spacing:0px;word-spacing:0px;fill:#000000;fill-opacity:1;stroke:none;stroke-width:0.55036718"
         x="74.243034"
         y="210.92108"
         id="text1194-6"><tspan
           sodipodi:role="line"
           id="tspan1192-7"
           x="74.243034"
           y="210.92108"
           style="stroke-width:0.55036718">Order of Play</tspan><tspan
           id="tspan5334"
           sodipodi:role="line"
           x="74.243034"
           y="221.92842"
           style="stroke-width:0.55036718" /></text>
    </g>
  </g>
</svg>
